<?xml version="1.0" encoding="utf-8"?><svg viewBox="0 0 40 40" xmlns="http://www.w3.org/2000/svg" xmlns:xlink="http://www.w3.org/1999/xlink"><style>:root>svg{display:none}:root>svg:target{display:block}</style><svg fill="none" viewBox="0 0 24 24" id="Chevron-Down-Small" xmlns="http://www.w3.org/2000/svg"><path d="M7.96 10.46a1 1 0 0 0 0 1.414l3.333 3.333a1 1 0 0 0 1.414 0l3.333-3.333a1 1 0 0 0-1.414-1.414L12 13.086 9.374 10.46a1 1 0 0 0-1.415 0Z" fill="#000"/></svg><svg fill="none" viewBox="0 0 24 24" id="chevron-left" xmlns="http://www.w3.org/2000/svg"><path d="M14.374 6.293a1 1 0 0 0-1.414 0l-5 5a1 1 0 0 0 0 1.414l5 5a1 1 0 0 0 1.414-1.414L10.081 12l4.293-4.293a1 1 0 0 0 0-1.414Z" fill="#172B4D"/></svg><svg fill="none" viewBox="0 0 24 24" id="flights-calendar" xmlns="http://www.w3.org/2000/svg"><path d="M8 2v3M16 2v3M3.5 9.09h17M21 8.5V17c0 3-1.5 5-5 5H8c-3.5 0-5-2-5-5V8.5c0-3 1.5-5 5-5h8c3.5 0 5 2 5 5Z" stroke="#979A9D" stroke-width="1.5" stroke-miterlimit="10" stroke-linecap="round" stroke-linejoin="round"/><path d="M15.695 13.7h.009M15.695 16.7h.009M11.995 13.7h.01M11.995 16.7h.01M8.294 13.7h.01M8.294 16.7h.01" stroke="#979A9D" stroke-width="2" stroke-linecap="round" stroke-linejoin="round"/></svg><svg fill="none" viewBox="0 0 16 16" id="main-page-arrived" xmlns="http://www.w3.org/2000/svg"><path d="M14.432 13.25c-.951-1.646-2.418-2.826-4.13-3.385a4.5 4.5 0 1 0-4.604 0c-1.712.559-3.179 1.739-4.13 3.385a.5.5 0 1 0 .865.5C3.611 11.715 5.692 10.5 8 10.5c2.308 0 4.39 1.215 5.567 3.25a.5.5 0 1 0 .865-.5ZM4.5 6a3.5 3.5 0 1 1 7 0 3.5 3.5 0 0 1-7 0Z" fill="#1C1C1C"/></svg><svg fill="none" viewBox="0 0 16 16" id="main-page-arrow" xmlns="http://www.w3.org/2000/svg"><path fill-rule="evenodd" clip-rule="evenodd" d="M3.646 5.66a.471.471 0 0 1 .708 0l3.292 3.59a.471.471 0 0 0 .708 0l3.292-3.59a.471.471 0 0 1 .708 0 .58.58 0 0 1 0 .77L9.06 10.022a1.414 1.414 0 0 1-2.122 0l-3.293-3.59a.58.58 0 0 1 0-.771Z" fill="#2C2C2E"/></svg><svg fill="none" viewBox="0 0 16 16" id="main-page-cancellation" xmlns="http://www.w3.org/2000/svg"><path d="M13 9h1a.5.5 0 0 0 0-1h-1V7h1a.5.5 0 0 0 0-1h-1.025a4.985 4.985 0 0 0-1.34-2.928l1.219-1.218a.5.5 0 0 0-.708-.708l-1.268 1.269a4.984 4.984 0 0 0-5.756 0L3.854 1.146a.5.5 0 0 0-.708.708l1.219 1.218c-.758.8-1.23 1.83-1.34 2.928H2a.5.5 0 1 0 0 1h1v1H2a.5.5 0 1 0 0 1h1v.5c0 .169.009.336.025.5H2a.5.5 0 0 0 0 1h1.23a5 5 0 0 0 9.54 0H14a.5.5 0 1 0 0-1h-1.025c.016-.164.025-.331.025-.5V9ZM8 2.5A4.005 4.005 0 0 1 11.967 6H4.03A4.004 4.004 0 0 1 8 2.5Zm.5 10.967V8.5a.5.5 0 0 0-1 0v4.967A4.004 4.004 0 0 1 4 9.5V7h8v2.5a4.004 4.004 0 0 1-3.5 3.967Z" fill="#1C1C1C"/></svg><svg fill="none" viewBox="0 0 16 16" id="main-page-flight" xmlns="http://www.w3.org/2000/svg"><path d="M8 5.5a2.5 2.5 0 1 0 0 5 2.5 2.5 0 0 0 0-5Zm0 4a1.5 1.5 0 1 1 0-3 1.5 1.5 0 0 1 0 3Zm4.607.446a5 5 0 0 1-.88 1.388.5.5 0 0 1-.745-.667 3.997 3.997 0 0 0 0-5.333.5.5 0 1 1 .745-.667 5.005 5.005 0 0 1 .88 5.28ZM4.313 6.443a4 4 0 0 0 .703 4.224.5.5 0 0 1-.745.667 4.996 4.996 0 0 1 0-6.667.5.5 0 0 1 .747.667 3.986 3.986 0 0 0-.705 1.11ZM15.5 8a7.474 7.474 0 0 1-2.143 5.25.5.5 0 1 1-.714-.7 6.494 6.494 0 0 0 0-9.097.5.5 0 1 1 .714-.703A7.474 7.474 0 0 1 15.5 8ZM3.357 12.549a.5.5 0 1 1-.714.701 7.492 7.492 0 0 1 0-10.5.5.5 0 1 1 .714.7 6.494 6.494 0 0 0 0 9.098Z" fill="#1C1C1C"/></svg><svg fill="none" viewBox="0 0 24 24" id="main-page-flight-location" xmlns="http://www.w3.org/2000/svg"><path d="M12 8a3 3 0 1 0 0 6 3 3 0 0 0 0-6Zm0 4.5a1.5 1.5 0 1 1 0-3 1.5 1.5 0 0 1 0 3Z" fill="#172B4D"/><path d="M12 22a4.21 4.21 0 0 1-3.43-1.742C5.538 16.097 4 12.968 4 10.96A7.94 7.94 0 0 1 6.343 5.33 8.02 8.02 0 0 1 12 3a8.02 8.02 0 0 1 5.657 2.331A7.94 7.94 0 0 1 20 10.96c0 2.01-1.538 5.138-4.57 9.3A4.21 4.21 0 0 1 12 22Zm0-17.272a6.288 6.288 0 0 0-4.428 1.828 6.224 6.224 0 0 0-1.837 4.405c0 1.591 1.506 4.534 4.24 8.285A2.5 2.5 0 0 0 12 20.273a2.513 2.513 0 0 0 2.025-1.027c2.734-3.751 4.24-6.694 4.24-8.285a6.224 6.224 0 0 0-1.837-4.405A6.288 6.288 0 0 0 12 4.728Z" fill="#172B4D"/></svg><svg fill="none" viewBox="0 0 16 16" id="main-page-percentage" xmlns="http://www.w3.org/2000/svg"><path fill-rule="evenodd" clip-rule="evenodd" d="M8.455 5.608 14 4l-1.38 5.606-1.722-1.653-2.777 2.893a.5.5 0 0 1-.722 0L5.36 8.722l-3 3.124a.5.5 0 0 1-.72-.692L5 7.654a.5.5 0 0 1 .72 0l2.04 2.124 2.417-2.517-1.722-1.653Z" fill="#000"/></svg><svg fill="none" viewBox="0 0 40 40" id="main-title-icon" xmlns="http://www.w3.org/2000/svg"><rect x=".5" y=".5" width="39" height="39" rx="19.5" fill="#2563EB"/><rect x=".5" y=".5" width="39" height="39" rx="19.5" stroke="#3B82F6"/><path d="M17.5 28.333h5c4.166 0 5.833-1.666 5.833-5.833v-5c0-4.167-1.666-5.833-5.833-5.833h-5c-4.167 0-5.834 1.666-5.834 5.833v5c0 4.167 1.667 5.833 5.834 5.833ZM23.125 17.5h-6.25M23.125 22.5h-6.25" stroke="#fff" stroke-width="1.5" stroke-linecap="round" stroke-linejoin="round"/></svg><svg fill="none" viewBox="0 0 24 24" id="passenger-breadcrumbs" xmlns="http://www.w3.org/2000/svg"><path fill-rule="evenodd" clip-rule="evenodd" d="M14.53 5.47a.75.75 0 0 0-1.06 0l-6 6a.75.75 0 0 0 0 1.06l6 6a.75.75 0 1 0 1.06-1.06L9.06 12l5.47-5.47a.75.75 0 0 0 0-1.06Z" fill="#2C2E30"/></svg><svg fill="none" viewBox="0 0 24 24" id="passenger-calendar-icon" xmlns="http://www.w3.org/2000/svg"><path d="M8 2v3M16 2v3M3.5 9.09h17M21 8.5V17c0 3-1.5 5-5 5H8c-3.5 0-5-2-5-5V8.5c0-3 1.5-5 5-5h8c3.5 0 5 2 5 5Z" stroke="#172B4D" stroke-width="1.5" stroke-miterlimit="10" stroke-linecap="round" stroke-linejoin="round"/><path d="M15.695 13.7h.009M15.695 16.7h.009M11.995 13.7h.01M11.995 16.7h.01M8.294 13.7h.01M8.294 16.7h.01" stroke="#172B4D" stroke-width="2" stroke-linecap="round" stroke-linejoin="round"/></svg><svg fill="none" viewBox="0 0 24 24" id="passenger-gender-icon" xmlns="http://www.w3.org/2000/svg"><path d="M12 16a7 7 0 1 0 0-14 7 7 0 0 0 0 14ZM12 16v6M15 19H9" stroke="#172B4D" stroke-width="1.5" stroke-linecap="round" stroke-linejoin="round"/></svg><svg fill="none" viewBox="0 0 16 16" id="passenger-url-icon" xmlns="http://www.w3.org/2000/svg"><path d="M5.125 13.432h5.578c.756 0 1.125-.375 1.125-1.196v-4.3c0-.739-.305-1.12-.931-1.184V5.275C10.896 3.066 9.448 2 7.913 2 6.38 2 4.932 3.066 4.932 5.275v1.506C4.357 6.87 4 7.244 4 7.936v4.3c0 .82.37 1.196 1.125 1.196Zm.75-8.28c0-1.47.943-2.25 2.04-2.25 1.095 0 2.038.78 2.038 2.25v1.594l-4.078.006v-1.6Z" fill="#9E9E9E"/></svg><svg fill="none" viewBox="0 0 24 24" id="passenger-warning" xmlns="http://www.w3.org/2000/svg"><path fill="#fff" fill-opacity=".01" d="M0 0h24v24H0z"/><path fill-rule="evenodd" clip-rule="evenodd" d="M12.766 3.983c.243.1.464.248.65.434l6.168 6.167a2.005 2.005 0 0 1 0 2.833l-6.168 6.167a2.002 2.002 0 0 1-2.832 0l-6.168-6.167a2.001 2.001 0 0 1 0-2.833l6.168-6.167a2.001 2.001 0 0 1 2.182-.434Zm-1.473 9.724A1 1 0 0 0 13 13V8a1 1 0 0 0-2 0v5a1 1 0 0 0 .293.707Zm0 3a1 1 0 1 0 1.414-1.414 1 1 0 0 0-1.414 1.414Z" fill="#fff"/></svg><svg fill="none" viewBox="0 0 16 16" id="reload-icon" xmlns="http://www.w3.org/2000/svg"><path d="M7.781 7.615a.441.441 0 0 0 .34-.135l2.414-2.425a.457.457 0 0 0 .147-.352.502.502 0 0 0-.147-.351l-2.414-2.45a.433.433 0 0 0-.34-.14.464.464 0 0 0-.463.48c0 .123.047.24.13.334l1.564 1.535a5.877 5.877 0 0 0-1.014-.093 5.161 5.161 0 0 0-5.18 5.173 5.168 5.168 0 0 0 5.18 5.186 5.163 5.163 0 0 0 5.174-5.186c0-.28-.2-.486-.487-.486-.275 0-.457.205-.457.486a4.22 4.22 0 0 1-4.23 4.243A4.225 4.225 0 0 1 3.762 9.19c0-2.35 1.886-4.23 4.236-4.23.445 0 .856.035 1.207.111l-1.752 1.74a.485.485 0 0 0-.135.334c0 .27.2.47.463.47Z" fill="#797979"/></svg><svg fill="none" viewBox="0 0 24 16" id="sidebar-flag-icon" xmlns="http://www.w3.org/2000/svg"><g clip-path="url(#qa)"><path d="M0 10.667h24V16H0v-5.333Z" fill="#1EB53A"/><path d="M0 0h24v5.333H0V0Z" fill="#0099B5"/><path d="M0 5.12h24v5.76H0V5.12Z" fill="#CE1126"/><path d="M0 5.44h24v5.12H0V5.44ZM5.04 4.48c1.193 0 2.16-.86 2.16-1.92S6.233.64 5.04.64s-2.16.86-2.16 1.92.967 1.92 2.16 1.92Z" fill="#fff"/><path d="M5.76 4.48c1.193 0 2.16-.86 2.16-1.92S6.953.64 5.76.64 3.6 1.5 3.6 2.56s.967 1.92 2.16 1.92Z" fill="#0099B5"/><path d="m9.792 3.713-.137.364.209.064" fill="#fff"/><path d="m9.791 3.713.137.364-.209.064" fill="#fff"/><path d="m10.2 3.983-.431-.014.002.202" fill="#fff"/><path d="m10.199 3.98-.34.227-.138-.165" fill="#fff"/><path d="m9.384 3.98.34.227.138-.164" fill="#fff"/><path d="m9.383 3.983.431-.014-.002.202" fill="#fff"/><path d="m10.048 4.409-.136-.367-.208.053" fill="#fff"/><path d="m10.047 4.41-.353-.229.122-.158" fill="#fff"/><path d="m9.539 4.405.351-.22-.13-.162" fill="#fff"/><path d="m9.54 4.406.126-.366.214.06M9.792 2.177l-.137.364.209.064" fill="#fff"/><path d="m9.791 2.177.137.364-.209.064" fill="#fff"/><path d="m10.2 2.446-.431-.013.002.202" fill="#fff"/><path d="m10.199 2.444-.34.227-.138-.165" fill="#fff"/><path d="m9.384 2.444.34.227.138-.165" fill="#fff"/><path d="m9.383 2.446.431-.013-.002.202" fill="#fff"/><path d="m10.048 2.873-.136-.368-.208.054" fill="#fff"/><path d="m10.047 2.873-.353-.228.122-.158" fill="#fff"/><path d="m9.539 2.87.351-.22-.13-.164" fill="#fff"/><path d="m9.54 2.87.126-.366.214.06M9.792.64l-.137.365.209.064" fill="#fff"/><path d="m9.791.64.137.365-.209.064" fill="#fff"/><path d="M10.2.91 9.77.898l.002.202" fill="#fff"/><path d="m10.199.908-.34.227L9.721.97" fill="#fff"/><path d="m9.384.908.34.227.138-.164" fill="#fff"/><path d="m9.383.91.431-.013-.002.202" fill="#fff"/><path d="M10.048 1.337 9.912.97l-.208.053" fill="#fff"/><path d="m10.047 1.337-.353-.228.122-.158" fill="#fff"/><path d="m9.539 1.333.351-.22L9.76.95" fill="#fff"/><path d="m9.54 1.334.126-.366.214.06M11.52 3.713l-.137.364.209.064" fill="#fff"/><path d="m11.52 3.713.136.364-.209.064" fill="#fff"/><path d="m11.928 3.983-.431-.014.002.202" fill="#fff"/><path d="m11.927 3.98-.34.227-.138-.165" fill="#fff"/><path d="m11.112 3.98.34.227.138-.164" fill="#fff"/><path d="m11.11 3.983.432-.014-.002.202" fill="#fff"/><path d="m11.776 4.409-.136-.367-.208.053" fill="#fff"/><path d="m11.775 4.41-.353-.229.122-.158" fill="#fff"/><path d="m11.267 4.405.351-.22-.13-.162" fill="#fff"/><path d="m11.268 4.406.126-.366.214.06M11.52 2.177l-.137.364.209.064" fill="#fff"/><path d="m11.52 2.177.136.364-.209.064" fill="#fff"/><path d="m11.928 2.446-.431-.013.002.202" fill="#fff"/><path d="m11.927 2.444-.34.227-.138-.165" fill="#fff"/><path d="m11.112 2.444.34.227.138-.165" fill="#fff"/><path d="m11.11 2.446.432-.013-.002.202" fill="#fff"/><path d="m11.776 2.873-.136-.368-.208.054" fill="#fff"/><path d="m11.775 2.873-.353-.228.122-.158" fill="#fff"/><path d="m11.267 2.87.351-.22-.13-.164" fill="#fff"/><path d="m11.268 2.87.126-.366.214.06M11.52.64l-.137.365.209.064" fill="#fff"/><path d="m11.52.64.136.365-.209.064" fill="#fff"/><path d="m11.928.91-.431-.013.002.202" fill="#fff"/><path d="m11.927.908-.34.227L11.45.97" fill="#fff"/><path d="m11.112.908.34.227.138-.164" fill="#fff"/><path d="m11.11.91.432-.013-.002.202" fill="#fff"/><path d="M11.776 1.337 11.64.97l-.208.053" fill="#fff"/><path d="m11.775 1.337-.353-.228.122-.158" fill="#fff"/><path d="m11.267 1.333.351-.22-.13-.163" fill="#fff"/><path d="m11.268 1.334.126-.366.214.06M13.248 3.713l-.137.364.209.064" fill="#fff"/><path d="m13.248 3.713.136.364-.209.064" fill="#fff"/><path d="m13.656 3.983-.431-.014.002.202" fill="#fff"/><path d="m13.655 3.98-.34.227-.138-.165" fill="#fff"/><path d="m12.84 3.98.34.227.138-.164" fill="#fff"/><path d="m12.839 3.983.431-.014-.002.202" fill="#fff"/><path d="m13.504 4.409-.136-.367-.208.053" fill="#fff"/><path d="m13.503 4.41-.353-.229.122-.158" fill="#fff"/><path d="m12.995 4.405.351-.22-.13-.162" fill="#fff"/><path d="m12.996 4.406.126-.366.214.06M13.248 2.177l-.137.364.209.064" fill="#fff"/><path d="m13.248 2.177.136.364-.209.064" fill="#fff"/><path d="m13.656 2.446-.431-.013.002.202" fill="#fff"/><path d="m13.655 2.444-.34.227-.138-.165" fill="#fff"/><path d="m12.84 2.444.34.227.138-.165" fill="#fff"/><path d="m12.839 2.446.431-.013-.002.202" fill="#fff"/><path d="m13.504 2.873-.136-.368-.208.054" fill="#fff"/><path d="m13.503 2.873-.353-.228.122-.158" fill="#fff"/><path d="m12.995 2.87.351-.22-.13-.164" fill="#fff"/><path d="m12.996 2.87.126-.366.214.06M13.248.64l-.137.365.209.064" fill="#fff"/><path d="m13.248.64.136.365-.209.064" fill="#fff"/><path d="m13.656.91-.431-.013.002.202" fill="#fff"/><path d="m13.655.908-.34.227-.138-.165" fill="#fff"/><path d="m12.84.908.34.227.138-.164" fill="#fff"/><path d="m12.839.91.431-.013-.002.202" fill="#fff"/><path d="M13.504 1.337 13.368.97l-.208.053" fill="#fff"/><path d="m13.503 1.337-.353-.228.122-.158" fill="#fff"/><path d="m12.995 1.333.351-.22-.13-.163" fill="#fff"/><path d="m12.996 1.334.126-.366.214.06M6.336 3.713l-.137.364.209.064" fill="#fff"/><path d="m6.335 3.713.137.364-.209.064" fill="#fff"/><path d="m6.744 3.983-.431-.014.002.202" fill="#fff"/><path d="m6.743 3.98-.34.227-.138-.165" fill="#fff"/><path d="m5.928 3.98.34.227.138-.164" fill="#fff"/><path d="m5.927 3.983.431-.014-.002.202" fill="#fff"/><path d="m6.592 4.409-.136-.367-.208.053" fill="#fff"/><path d="m6.591 4.41-.353-.229.122-.158" fill="#fff"/><path d="m6.083 4.405.351-.22-.13-.162" fill="#fff"/><path d="m6.084 4.406.126-.366.214.06M8.064 3.713l-.137.364.209.064" fill="#fff"/><path d="m8.063 3.713.137.364-.209.064" fill="#fff"/><path d="m8.472 3.983-.431-.014.002.202" fill="#fff"/><path d="m8.47 3.98-.339.227-.138-.165" fill="#fff"/><path d="m7.656 3.98.34.227.138-.164" fill="#fff"/><path d="m7.655 3.983.431-.014-.002.202" fill="#fff"/><path d="m8.32 4.409-.136-.367-.208.053" fill="#fff"/><path d="m8.319 4.41-.353-.229.122-.158" fill="#fff"/><path d="m7.811 4.405.351-.22-.13-.162" fill="#fff"/><path d="m7.812 4.406.126-.366.214.06M8.064 2.177l-.137.364.209.064" fill="#fff"/><path d="m8.063 2.177.137.364-.209.064" fill="#fff"/><path d="m8.472 2.446-.431-.013.002.202" fill="#fff"/><path d="m8.47 2.444-.339.227-.138-.165" fill="#fff"/><path d="m7.656 2.444.34.227.138-.165" fill="#fff"/><path d="m7.655 2.446.431-.013-.002.202" fill="#fff"/><path d="m8.32 2.873-.136-.368-.208.054" fill="#fff"/><path d="m8.319 2.873-.353-.228.122-.158" fill="#fff"/><path d="m7.811 2.87.351-.22-.13-.164" fill="#fff"/><path d="m7.812 2.87.126-.366.214.06" fill="#fff"/></g><defs><clipPath id="qa"><path fill="#fff" d="M0 0h24v16H0z"/></clipPath></defs></svg><svg fill="none" viewBox="0 0 24 24" id="sidebar-flights-icon" xmlns="http://www.w3.org/2000/svg"><path d="M8.88 4.6c-.8-3.46-6.01-3.47-6.81 0-.47 2.03.82 3.75 1.94 4.82.82.77 2.11.77 2.93 0 1.12-1.07 2.4-2.79 1.94-4.82ZM5.51 6.2c-.55 0-1-.45-1-1s.44-1 .99-1h.01c.56 0 1 .45 1 1s-.44 1-1 1ZM21.91 16.6c-.8-3.46-6.03-3.47-6.84 0-.47 2.03.82 3.75 1.95 4.82.82.77 2.12.77 2.94 0 1.13-1.07 2.42-2.79 1.95-4.82Zm-3.38 1.6c-.55 0-1-.45-1-1s.44-1 .99-1h.01c.55 0 1 .45 1 1s-.45 1-1 1ZM12 19.75H9.32c-1.16 0-2.17-.7-2.57-1.78-.41-1.08-.11-2.27.76-3.04l7.99-6.99c.48-.42.49-.99.35-1.38-.15-.39-.53-.81-1.17-.81H12c-.41 0-.75-.34-.75-.75s.34-.75.75-.75h2.68c1.16 0 2.17.7 2.57 1.78.41 1.08.11 2.27-.76 3.04L8.5 16.06c-.48.42-.49.99-.35 1.38.15.39.53.81 1.17.81H12c.41 0 .75.34.75.75s-.34.75-.75.75Z" fill="#5D6165"/></svg><svg fill="none" viewBox="0 0 24 24" id="sidebar-main-icon" xmlns="http://www.w3.org/2000/svg"><path d="M9 21H5c-1.1 0-2-.9-2-2V5c0-1.1.9-2 2-2h4c1.1 0 2 .9 2 2v14c0 1.1-.9 2-2 2Zm6 0h4c1.1 0 2-.9 2-2v-5c0-1.1-.9-2-2-2h-4c-1.1 0-2 .9-2 2v5c0 1.1.9 2 2 2Zm6-13V5c0-1.1-.9-2-2-2h-4c-1.1 0-2 .9-2 2v3c0 1.1.9 2 2 2h4c1.1 0 2-.9 2-2Z" fill="#5D6165"/></svg><svg fill="none" viewBox="0 0 24 24" id="sidebar-notifications-icon" xmlns="http://www.w3.org/2000/svg"><path d="m20.19 14.06-1.13-1.88c-.25-.41-.47-1.2-.47-1.68V8.63c0-3.63-2.95-6.58-6.57-6.58C8.39 2.06 5.44 5 5.44 8.63v1.86c0 .48-.22 1.27-.46 1.68l-1.13 1.88c-.43.73-.53 1.56-.26 2.28.27.73.88 1.31 1.68 1.57 1.08.36 2.17.62 3.28.81.11.02.22.03.33.05l.44.06c.26.04.52.07.79.09a20.187 20.187 0 0 0 3.79 0c.23-.02.46-.04.68-.07.18-.02.36-.04.54-.07.11-.01.22-.03.33-.05 1.12-.18 2.23-.46 3.31-.82a2.65 2.65 0 0 0 1.64-1.58c.28-.75.2-1.57-.21-2.26ZM12.75 10a.76.76 0 1 1-1.52 0V6.9a.76.76 0 1 1 1.52 0V10ZM14.83 20.01A3.014 3.014 0 0 1 12 22c-.79 0-1.57-.32-2.12-.89-.32-.3-.56-.7-.7-1.11.13.02.26.03.4.05.23.03.47.06.71.08.57.05 1.15.08 1.73.08.57 0 1.14-.03 1.7-.08.21-.02.42-.03.62-.06l.49-.06Z" fill="#5D6165"/></svg><svg fill="none" viewBox="0 0 24 24" id="sidebar-passengers-icon" xmlns="http://www.w3.org/2000/svg"><path d="M13.821 8c0 2.21-1.75 4-3.909 4s-3.909-1.79-3.909-4 1.75-4 3.91-4c2.158 0 3.908 1.79 3.908 4ZM15.699 17.667C15.146 20 11.866 20 9.912 20c-1.954 0-5.233 0-5.786-2.333C3.455 14.837 5.486 13 9.912 13c4.425 0 6.457 1.837 5.787 4.667Z" fill="#5D6165"/><path fill-rule="evenodd" clip-rule="evenodd" d="M17.067 16.583c.018.226.196.413.419.405 1.356-.046 3.17-.278 3.454-1.446.431-1.769-1.505-2.917-4.35-2.917-.506 0-.984.036-1.424.106-.341.054-.386.511-.097.704.729.484 1.324 1.112 1.676 1.89.18.4.288.821.322 1.258Z" fill="#5D6165"/><path d="M19.103 9.5c0 1.38-1.125 2.5-2.513 2.5a2.507 2.507 0 0 1-2.513-2.5c0-1.38 1.125-2.5 2.513-2.5a2.506 2.506 0 0 1 2.513 2.5Z" fill="#5D6165"/></svg><svg fill="none" viewBox="0 0 24 24" id="sidebar-planes-icon" xmlns="http://www.w3.org/2000/svg"><path d="M19.852 11.09h.001c.204.087.419.275.584.53.166.254.253.528.253.75v1.32c0 .3-.109.438-.192.492-.084.055-.257.1-.54-.021L14.948 12l-.012-.005c-.303-.121-.663-.139-.965.06-.306.2-.43.542-.43.874v2.91c0 .198.052.403.123.576.069.169.176.357.327.502l2.315 2.325a.544.544 0 0 1 .118.25c.029.126.02.232.002.289v.001l-.45 1.357v.001a.523.523 0 0 1-.679.32l-2.323-1.952a1.539 1.539 0 0 0-1.958 0L8.69 21.464a.49.49 0 0 1-.652-.31l-.003-.011-.45-1.357v-.001a.592.592 0 0 1 .001-.295.534.534 0 0 1 .118-.246v-.001l2.32-2.33c.144-.144.248-.332.315-.501.068-.17.121-.375.121-.572v-2.91c0-.337-.13-.677-.433-.877-.304-.2-.667-.186-.976-.052l-5.009 2.16c-.283.122-.456.076-.54.021-.083-.054-.192-.191-.192-.492v-1.32c0-.222.087-.496.252-.748.166-.253.378-.437.579-.52l.006-.003 5.7-2.45.014-.005.013-.007a1.06 1.06 0 0 0 .406-.373c.092-.142.17-.332.17-.544V4.66c0-.365.139-.803.388-1.208.247-.404.574-.727.899-.896a.58.58 0 0 1 .508 0c.33.17.66.492.908.892.249.402.387.837.387 1.202v3.06c0 .212.079.402.17.544.093.143.23.285.406.373l.015.007.014.007 1.037.438.003.002 4.667 2.008Z" fill="#5D6165" stroke="#5D6165"/></svg><svg fill="none" viewBox="0 0 20 20" id="sidebar-search-icon" xmlns="http://www.w3.org/2000/svg"><path fill-rule="evenodd" clip-rule="evenodd" d="M9.167 3.333a5.833 5.833 0 0 1 4.672 9.327l2.584 2.584a.833.833 0 0 1-1.179 1.178L12.66 13.84A5.833 5.833 0 1 1 9.167 3.334Zm0 10a4.167 4.167 0 1 0 0-8.333 4.167 4.167 0 0 0 0 8.333Z" fill="#A0A3A6"/></svg><svg fill="none" viewBox="0 0 24 24" id="sidebar-searchArrow-icon" xmlns="http://www.w3.org/2000/svg"><path d="M7.96 10.46a1 1 0 0 0 0 1.414l3.333 3.333a1 1 0 0 0 1.414 0l3.333-3.333a1 1 0 0 0-1.414-1.414L12 13.086 9.374 10.46a1 1 0 0 0-1.415 0Z" fill="#A0A3A6"/></svg><svg fill="none" viewBox="0 0 24 24" id="sidebar-searchCountry-icon" xmlns="http://www.w3.org/2000/svg"><path d="M14.374 6.293a1 1 0 0 0-1.414 0l-5 5a1 1 0 0 0 0 1.414l5 5a1 1 0 0 0 1.414-1.414L10.081 12l4.293-4.293a1 1 0 0 0 0-1.414Z" fill="#A0A3A6"/></svg><svg fill="none" viewBox="0 0 40 40" id="title-inner" xmlns="http://www.w3.org/2000/svg"><rect x=".5" y=".5" width="39" height="39" rx="19.5" fill="#2563EB"/><rect x=".5" y=".5" width="39" height="39" rx="19.5" stroke="#3B82F6"/><path d="M20.625 15.625H16.25a.624.624 0 1 1 0-1.25h4.375a.624.624 0 1 1 0 1.25ZM22.5 18.75h-6.25a.624.624 0 1 1 0-1.25h6.25a.624.624 0 1 1 0 1.25Zm-2.587 2.5H16.25a.624.624 0 1 1 0-1.25h3.663a.624.624 0 1 1 0 1.25Zm-1.5 2.5H16.25a.624.624 0 1 1 0-1.25h2.163a.624.624 0 1 1 0 1.25Z" fill="#fff"/><path d="M18.413 27.5h-2.788a3.129 3.129 0 0 1-3.125-3.125V13.75a3.129 3.129 0 0 1 3.125-3.125h7.5a3.129 3.129 0 0 1 3.125 3.125v5.125a.624.624 0 1 1-1.25 0V13.75a1.877 1.877 0 0 0-1.875-1.875h-7.5a1.877 1.877 0 0 0-1.875 1.875v10.625c0 1.034.841 1.875 1.875 1.875h2.788a.624.624 0 1 1 0 1.25Z" fill="#fff"/><path d="M24.375 29.375A4.38 4.38 0 0 1 20 25a4.38 4.38 0 0 1 4.375-4.375A4.38 4.38 0 0 1 28.75 25a4.38 4.38 0 0 1-4.375 4.375Zm0-7.5A3.129 3.129 0 0 0 21.25 25a3.129 3.129 0 0 0 3.125 3.125A3.129 3.129 0 0 0 27.5 25a3.129 3.129 0 0 0-3.125-3.125Z" fill="#fff"/><path d="M23.958 26.583a.623.623 0 0 1-.442-.183l-.833-.833a.625.625 0 0 1 .884-.884l.391.391 1.225-1.224a.625.625 0 0 1 .884.884L24.4 26.4a.621.621 0 0 1-.442.182Z" fill="#fff"/></svg></svg>