<svg width="24" height="24" viewBox="0 0 24 24" fill="none" xmlns="http://www.w3.org/2000/svg">
<path d="M12.7069 5.45964C12.3164 5.06912 11.6833 5.06912 11.2927 5.45964L5.4594 11.293C5.27186 11.4805 5.1665 11.7349 5.1665 12.0001C5.1665 12.2653 5.27186 12.5197 5.4594 12.7072L11.2927 18.5405C11.6833 18.931 12.3164 18.931 12.7069 18.5405C13.0975 18.15 13.0975 17.5168 12.7069 17.1263L8.58072 13.0001H17.8332C18.3855 13.0001 18.8332 12.5524 18.8332 12.0001C18.8332 11.4478 18.3855 11.0001 17.8332 11.0001H8.58072L12.7069 6.87385C13.0975 6.48333 13.0975 5.85017 12.7069 5.45964Z" fill="white"/>
</svg>
