<svg width="24" height="24" viewBox="0 0 24 24" fill="none" xmlns="http://www.w3.org/2000/svg">
<path fill-rule="evenodd" clip-rule="evenodd" d="M8 2.25C8.41421 2.25 8.75 2.58579 8.75 3V4.25H15.25V3C15.25 2.58579 15.5858 2.25 16 2.25C16.4142 2.25 16.75 2.58579 16.75 3V4.30888C19.017 4.66846 20.75 6.63185 20.75 9V16C20.75 18.6234 18.6234 20.75 16 20.75H8C5.37665 20.75 3.25 18.6234 3.25 16V9C3.25 6.63185 4.98301 4.66846 7.25 4.30888V3C7.25 2.58579 7.58579 2.25 8 2.25ZM7.25 5.83697C5.81665 6.17555 4.75 7.46321 4.75 9V10.25H19.25V9C19.25 7.46321 18.1834 6.17555 16.75 5.83697V7C16.75 7.41421 16.4142 7.75 16 7.75C15.5858 7.75 15.25 7.41421 15.25 7V5.75H8.75V7C8.75 7.41421 8.41421 7.75 8 7.75C7.58579 7.75 7.25 7.41421 7.25 7V5.83697ZM19.25 11.75H4.75V16C4.75 17.7949 6.20507 19.25 8 19.25H16C17.7949 19.25 19.25 17.7949 19.25 16V11.75Z" fill="#A0A3A6"/>
</svg>
