<svg width="156" height="198" viewBox="0 0 156 198" fill="none" xmlns="http://www.w3.org/2000/svg">
<rect x="61.5" y="44.5" width="5" height="5" rx="1" fill="#EBEBEB"/>
<rect x="61.5" y="51.5" width="5" height="5" rx="1" fill="#EBEBEB"/>
<rect x="61.5" y="58.5" width="5" height="5" rx="1" fill="#EBEBEB"/>
<rect x="61.5" y="71.5" width="5" height="5" rx="1" fill="#EBEBEB"/>
<rect x="61.5" y="78.5" width="5" height="5" rx="1" fill="#EBEBEB"/>
<rect x="61.5" y="85.5" width="5" height="5" rx="1" fill="#EBEBEB"/>
<rect x="61.5" y="92.5" width="5" height="5" rx="1" fill="#EBEBEB"/>
<rect x="61.5" y="99.5" width="5" height="5" rx="1" fill="#EBEBEB"/>
<rect x="61.5" y="106.5" width="5" height="5" rx="1" fill="#EBEBEB"/>
<rect x="61.5" y="113.5" width="5" height="5" rx="1" fill="#EBEBEB"/>
<rect x="61.5" y="120.5" width="5" height="5" rx="1" fill="#EBEBEB"/>
<rect x="61.5" y="127.5" width="5" height="5" rx="1" fill="#EBEBEB"/>
<rect x="61.5" y="134.5" width="5" height="5" rx="1" fill="#EBEBEB"/>
<rect x="61.5" y="141.5" width="5" height="5" rx="1" fill="#EBEBEB"/>
<rect x="61.5" y="148.5" width="5" height="5" rx="1" fill="#EBEBEB"/>
<rect x="61.5" y="155.5" width="5" height="5" rx="1" fill="#EBEBEB"/>
<rect x="61.5" y="162.5" width="5" height="5" rx="1" fill="#EBEBEB"/>
<rect x="61.5" y="169.5" width="5" height="5" rx="1" fill="#EBEBEB"/>
<rect x="61.5" y="176.5" width="5" height="5" rx="1" fill="#EBEBEB"/>
<rect x="61.5" y="183.5" width="5" height="5" rx="1" fill="#EBEBEB"/>
<rect x="61.5" y="190.5" width="5" height="5" rx="1" fill="#EBEBEB"/>
<rect x="67.5" y="44.5" width="5" height="5" rx="1" fill="#EBEBEB"/>
<rect x="67.5" y="51.5" width="5" height="5" rx="1" fill="#EBEBEB"/>
<rect x="67.5" y="58.5" width="5" height="5" rx="1" fill="#EBEBEB"/>
<rect x="67.5" y="71.5" width="5" height="5" rx="1" fill="#EBEBEB"/>
<rect x="67.5" y="78.5" width="5" height="5" rx="1" fill="#EBEBEB"/>
<rect x="67.5" y="85.5" width="5" height="5" rx="1" fill="#EBEBEB"/>
<rect x="67.5" y="92.5" width="5" height="5" rx="1" fill="#EBEBEB"/>
<rect x="67.5" y="99.5" width="5" height="5" rx="1" fill="#EBEBEB"/>
<rect x="67.5" y="106.5" width="5" height="5" rx="1" fill="#EBEBEB"/>
<rect x="67.5" y="113.5" width="5" height="5" rx="1" fill="#EBEBEB"/>
<rect x="67.5" y="120.5" width="5" height="5" rx="1" fill="#EBEBEB"/>
<rect x="67.5" y="127.5" width="5" height="5" rx="1" fill="#EBEBEB"/>
<rect x="67.5" y="134.5" width="5" height="5" rx="1" fill="#EBEBEB"/>
<rect x="67.5" y="141.5" width="5" height="5" rx="1" fill="#EBEBEB"/>
<rect x="67.5" y="148.5" width="5" height="5" rx="1" fill="#EBEBEB"/>
<rect x="67.5" y="155.5" width="5" height="5" rx="1" fill="#EBEBEB"/>
<rect x="67.5" y="162.5" width="5" height="5" rx="1" fill="#EBEBEB"/>
<rect x="67.5" y="169.5" width="5" height="5" rx="1" fill="#EBEBEB"/>
<rect x="67.5" y="176.5" width="5" height="5" rx="1" fill="#EBEBEB"/>
<rect x="67.5" y="183.5" width="5" height="5" rx="1" fill="#EBEBEB"/>
<rect x="67.5" y="190.5" width="5" height="5" rx="1" fill="#EBEBEB"/>
<rect x="84.5" y="44.5" width="5" height="5" rx="1" fill="#EBEBEB"/>
<rect x="84.5" y="51.5" width="5" height="5" rx="1" fill="#EBEBEB"/>
<rect x="84.5" y="58.5" width="5" height="5" rx="1" fill="#EBEBEB"/>
<rect x="84.5" y="71.5" width="5" height="5" rx="1" fill="#EBEBEB"/>
<rect x="84.5" y="78.5" width="5" height="5" rx="1" fill="#EBEBEB"/>
<rect x="84.5" y="85.5" width="5" height="5" rx="1" fill="#EBEBEB"/>
<rect x="84.5" y="92.5" width="5" height="5" rx="1" fill="#EBEBEB"/>
<rect x="84.5" y="99.5" width="5" height="5" rx="1" fill="#EBEBEB"/>
<rect x="84.5" y="106.5" width="5" height="5" rx="1" fill="#EBEBEB"/>
<rect x="84.5" y="113.5" width="5" height="5" rx="1" fill="#EBEBEB"/>
<rect x="84.5" y="120.5" width="5" height="5" rx="1" fill="#EBEBEB"/>
<rect x="84.5" y="127.5" width="5" height="5" rx="1" fill="#EBEBEB"/>
<rect x="84.5" y="134.5" width="5" height="5" rx="1" fill="#EBEBEB"/>
<rect x="84.5" y="141.5" width="5" height="5" rx="1" fill="#EBEBEB"/>
<rect x="84.5" y="148.5" width="5" height="5" rx="1" fill="#EBEBEB"/>
<rect x="84.5" y="155.5" width="5" height="5" rx="1" fill="#EBEBEB"/>
<rect x="84.5" y="162.5" width="5" height="5" rx="1" fill="#EBEBEB"/>
<rect x="84.5" y="169.5" width="5" height="5" rx="1" fill="#EBEBEB"/>
<rect x="84.5" y="176.5" width="5" height="5" rx="1" fill="#EBEBEB"/>
<rect x="84.5" y="183.5" width="5" height="5" rx="1" fill="#EBEBEB"/>
<rect x="84.5" y="190.5" width="5" height="5" rx="1" fill="#EBEBEB"/>
<rect x="78.5" y="71.5" width="5" height="5" rx="1" fill="#EBEBEB"/>
<rect x="78.5" y="78.5" width="5" height="5" rx="1" fill="#EBEBEB"/>
<rect x="78.5" y="85.5" width="5" height="5" rx="1" fill="#EBEBEB"/>
<rect x="78.5" y="92.5" width="5" height="5" rx="1" fill="#EBEBEB"/>
<rect x="78.5" y="99.5" width="5" height="5" rx="1" fill="#EBEBEB"/>
<rect x="78.5" y="106.5" width="5" height="5" rx="1" fill="#EBEBEB"/>
<rect x="78.5" y="113.5" width="5" height="5" rx="1" fill="#EBEBEB"/>
<rect x="78.5" y="120.5" width="5" height="5" rx="1" fill="#EBEBEB"/>
<rect x="78.5" y="127.5" width="5" height="5" rx="1" fill="#EBEBEB"/>
<rect x="78.5" y="134.5" width="5" height="5" rx="1" fill="#EBEBEB"/>
<rect x="78.5" y="141.5" width="5" height="5" rx="1" fill="#EBEBEB"/>
<rect x="78.5" y="148.5" width="5" height="5" rx="1" fill="#EBEBEB"/>
<rect x="78.5" y="155.5" width="5" height="5" rx="1" fill="#EBEBEB"/>
<rect x="78.5" y="162.5" width="5" height="5" rx="1" fill="#EBEBEB"/>
<rect x="78.5" y="169.5" width="5" height="5" rx="1" fill="#EBEBEB"/>
<rect x="78.5" y="176.5" width="5" height="5" rx="1" fill="#EBEBEB"/>
<rect x="78.5" y="183.5" width="5" height="5" rx="1" fill="#EBEBEB"/>
<rect x="78.5" y="190.5" width="5" height="5" rx="1" fill="#EBEBEB"/>
<rect x="90.5" y="44.5" width="5" height="5" rx="1" fill="#EBEBEB"/>
<rect x="90.5" y="51.5" width="5" height="5" rx="1" fill="#EBEBEB"/>
<rect x="90.5" y="58.5" width="5" height="5" rx="1" fill="#EBEBEB"/>
<rect x="90.5" y="71.5" width="5" height="5" rx="1" fill="#EBEBEB"/>
<rect x="90.5" y="78.5" width="5" height="5" rx="1" fill="#EBEBEB"/>
<rect x="90.5" y="85.5" width="5" height="5" rx="1" fill="#EBEBEB"/>
<rect x="90.5" y="92.5" width="5" height="5" rx="1" fill="#EBEBEB"/>
<rect x="90.5" y="99.5" width="5" height="5" rx="1" fill="#EBEBEB"/>
<rect x="90.5" y="106.5" width="5" height="5" rx="1" fill="#EBEBEB"/>
<rect x="90.5" y="113.5" width="5" height="5" rx="1" fill="#EBEBEB"/>
<rect x="90.5" y="120.5" width="5" height="5" rx="1" fill="#EBEBEB"/>
<rect x="90.5" y="127.5" width="5" height="5" rx="1" fill="#EBEBEB"/>
<rect x="90.5" y="134.5" width="5" height="5" rx="1" fill="#EBEBEB"/>
<rect x="90.5" y="141.5" width="5" height="5" rx="1" fill="#EBEBEB"/>
<rect x="90.5" y="148.5" width="5" height="5" rx="1" fill="#EBEBEB"/>
<rect x="90.5" y="155.5" width="5" height="5" rx="1" fill="#2563EB"/>
<rect x="90.5" y="162.5" width="5" height="5" rx="1" fill="#EBEBEB"/>
<rect x="90.5" y="169.5" width="5" height="5" rx="1" fill="#EBEBEB"/>
<rect x="90.5" y="176.5" width="5" height="5" rx="1" fill="#EBEBEB"/>
<rect x="90.5" y="183.5" width="5" height="5" rx="1" fill="#EBEBEB"/>
<rect x="90.5" y="190.5" width="5" height="5" rx="1" fill="#EBEBEB"/>
<path d="M155 154L98 111V153L156 173.5L155 154Z" fill="url(#paint0_linear_218_25902)" stroke="url(#paint1_linear_218_25902)"/>
<path d="M2 154L59 111V153L1 173.5L2 154Z" fill="url(#paint2_linear_218_25902)" stroke="url(#paint3_linear_218_25902)"/>
<path d="M79 5V-2L91.5 6.5L88.5 10.5L79 5Z" fill="#EBEBEB"/>
<path d="M78.5 5V-2L66 6.5L69 10.5L78.5 5Z" fill="#EBEBEB"/>
<path d="M68.5 11L65 18L63 17.5L65.5 7L68.5 11Z" fill="#EBEBEB"/>
<path d="M89 11L91.5 18H94L92 7L89 11Z" fill="#EBEBEB"/>
<path d="M59 199.5V47C59 47 59.6003 -11 78.5 -11C97.4003 -11 98 47 98 47V199.5" stroke="#C8C8C6"/>
<path d="M63.2132 42.5H62.6507L63.6749 39.5909H64.3255L65.351 42.5H64.7885L64.0115 40.1875H63.9888L63.2132 42.5ZM63.2317 41.3594H64.7658V41.7827H63.2317V41.3594Z" fill="#A0A3A6"/>
<path d="M55.9808 45.5909V48.5H55.4538V46.1037H55.4368L54.7564 46.5384V46.0554L55.4794 45.5909H55.9808Z" fill="#A0A3A6"/>
<path d="M54.0163 55.5V55.1193L55.0263 54.1293C55.1229 54.0317 55.2034 53.9451 55.2678 53.8693C55.3321 53.7936 55.3804 53.7202 55.4126 53.6491C55.4448 53.5781 55.4609 53.5024 55.4609 53.4219C55.4609 53.33 55.4401 53.2514 55.3984 53.1861C55.3568 53.1198 55.2995 53.0687 55.2266 53.0327C55.1536 52.9967 55.0708 52.9787 54.978 52.9787C54.8823 52.9787 54.7985 52.9986 54.7266 53.0384C54.6546 53.0772 54.5987 53.1326 54.5589 53.2045C54.5201 53.2765 54.5007 53.3622 54.5007 53.4616H53.9993C53.9993 53.277 54.0414 53.1165 54.1257 52.9801C54.21 52.8437 54.326 52.7382 54.4737 52.6634C54.6224 52.5885 54.7929 52.5511 54.9851 52.5511C55.1802 52.5511 55.3516 52.5876 55.4993 52.6605C55.647 52.7334 55.7616 52.8333 55.843 52.9602C55.9254 53.0871 55.9666 53.232 55.9666 53.3949C55.9666 53.5038 55.9458 53.6108 55.9041 53.7159C55.8625 53.821 55.7891 53.9375 55.6839 54.0653C55.5798 54.1932 55.4335 54.348 55.245 54.5298L54.7436 55.0398V55.0597H56.0107V55.5H54.0163Z" fill="#A0A3A6"/>
<path d="M54.9998 62.5398C54.7953 62.5398 54.6135 62.5047 54.4544 62.4347C54.2962 62.3646 54.1712 62.267 54.0794 62.142C53.9875 62.017 53.9387 61.8726 53.9331 61.7088H54.4672C54.4719 61.7874 54.4979 61.8561 54.5453 61.9148C54.5926 61.9725 54.6556 62.0175 54.7342 62.0497C54.8128 62.0819 54.9009 62.098 54.9984 62.098C55.1026 62.098 55.1949 62.08 55.2754 62.044C55.3559 62.0071 55.4189 61.956 55.4643 61.8906C55.5098 61.8253 55.532 61.75 55.5311 61.6648C55.532 61.5767 55.5093 61.4991 55.4629 61.4318C55.4165 61.3646 55.3493 61.312 55.2612 61.2741C55.1741 61.2363 55.069 61.2173 54.9458 61.2173H54.6887V60.8111H54.9458C55.0472 60.8111 55.1357 60.7936 55.2115 60.7585C55.2882 60.7235 55.3483 60.6742 55.3919 60.6108C55.4354 60.5464 55.4567 60.4721 55.4558 60.3878C55.4567 60.3054 55.4383 60.2339 55.4004 60.1733C55.3635 60.1117 55.3109 60.0639 55.2427 60.0298C55.1755 59.9957 55.0964 59.9787 55.0055 59.9787C54.9165 59.9787 54.8341 59.9948 54.7583 60.027C54.6826 60.0592 54.6215 60.1051 54.5751 60.1648C54.5287 60.2235 54.5041 60.2936 54.5012 60.375H53.9941C53.9979 60.2121 54.0448 60.0691 54.1348 59.946C54.2257 59.822 54.3469 59.7254 54.4984 59.6562C54.6499 59.5862 54.8199 59.5511 55.0083 59.5511C55.2025 59.5511 55.371 59.5876 55.514 59.6605C55.658 59.7325 55.7692 59.8295 55.8478 59.9517C55.9264 60.0739 55.9657 60.2088 55.9657 60.3565C55.9667 60.5204 55.9184 60.6577 55.8208 60.7685C55.7243 60.8793 55.5974 60.9517 55.4402 60.9858V61.0085C55.6447 61.0369 55.8014 61.1127 55.9103 61.2358C56.0202 61.358 56.0746 61.5099 56.0737 61.6918C56.0737 61.8546 56.0273 62.0005 55.9345 62.1293C55.8426 62.2571 55.7157 62.3575 55.5538 62.4304C55.3928 62.5033 55.2082 62.5398 54.9998 62.5398Z" fill="#A0A3A6"/>
<path d="M53.8739 74.9602V74.5412L55.1083 72.5909H55.4577V73.1875H55.2447L54.4137 74.5043V74.527H56.1367V74.9602H53.8739ZM55.2617 75.5V74.8324L55.2674 74.6449V72.5909H55.7646V75.5H55.2617Z" fill="#A0A3A6"/>
<path d="M55.0043 82.5398C54.8149 82.5398 54.6454 82.5043 54.4957 82.4332C54.3461 82.3613 54.2273 82.2628 54.1392 82.1378C54.0521 82.0128 54.0057 81.8698 54 81.7088H54.5114C54.5208 81.8281 54.5724 81.9257 54.6662 82.0014C54.7599 82.0762 54.8726 82.1136 55.0043 82.1136C55.1075 82.1136 55.1993 82.09 55.2798 82.0426C55.3603 81.9953 55.4238 81.9295 55.4702 81.8452C55.5166 81.7609 55.5393 81.6648 55.5384 81.5568C55.5393 81.447 55.5161 81.3494 55.4688 81.2642C55.4214 81.179 55.3565 81.1122 55.2741 81.0639C55.1918 81.0147 55.0971 80.9901 54.9901 80.9901C54.9029 80.9891 54.8172 81.0052 54.733 81.0384C54.6487 81.0715 54.5819 81.1151 54.5327 81.169L54.0568 81.0909L54.2088 79.5909H55.8963V80.0312H54.6449L54.5611 80.8026H54.5781C54.6321 80.7391 54.7083 80.6866 54.8068 80.6449C54.9053 80.6023 55.0133 80.581 55.1307 80.581C55.3068 80.581 55.464 80.6226 55.6023 80.706C55.7405 80.7884 55.8494 80.902 55.929 81.0469C56.0085 81.1918 56.0483 81.3575 56.0483 81.544C56.0483 81.7363 56.0038 81.9077 55.9148 82.0582C55.8267 82.2079 55.7041 82.3258 55.5469 82.4119C55.3906 82.4972 55.2098 82.5398 55.0043 82.5398Z" fill="#A0A3A6"/>
<path d="M55.027 89.5398C54.8878 89.5388 54.7519 89.5147 54.6193 89.4673C54.4867 89.419 54.3674 89.3409 54.2614 89.233C54.1553 89.1241 54.071 88.9796 54.0085 88.7997C53.946 88.6188 53.9152 88.3949 53.9162 88.1278C53.9162 87.8788 53.9427 87.6567 53.9957 87.4616C54.0488 87.2666 54.125 87.1018 54.2244 86.9673C54.3239 86.8319 54.4437 86.7287 54.5838 86.6577C54.7249 86.5866 54.8826 86.5511 55.0568 86.5511C55.2396 86.5511 55.4015 86.5871 55.5426 86.6591C55.6847 86.7311 55.7992 86.8295 55.8864 86.9545C55.9735 87.0786 56.0275 87.2188 56.0483 87.375H55.5298C55.5033 87.2633 55.4489 87.1742 55.3665 87.108C55.285 87.0407 55.1818 87.0071 55.0568 87.0071C54.8551 87.0071 54.6998 87.0947 54.5909 87.2699C54.483 87.4451 54.4285 87.6856 54.4276 87.9915H54.4474C54.4938 87.9081 54.554 87.8366 54.6278 87.777C54.7017 87.7173 54.785 87.6714 54.8778 87.6392C54.9716 87.6061 55.0705 87.5895 55.1747 87.5895C55.3452 87.5895 55.4981 87.6302 55.6335 87.7116C55.7699 87.7931 55.8778 87.9053 55.9574 88.0483C56.0369 88.1903 56.0762 88.3532 56.0753 88.5369C56.0762 88.7282 56.0327 88.9001 55.9446 89.0526C55.8565 89.2041 55.7339 89.3234 55.5767 89.4105C55.4195 89.4976 55.2363 89.5407 55.027 89.5398ZM55.0241 89.1136C55.1274 89.1136 55.2197 89.0885 55.3011 89.0384C55.3826 88.9882 55.447 88.9205 55.4943 88.8352C55.5417 88.75 55.5649 88.6544 55.5639 88.5483C55.5649 88.4441 55.5421 88.3499 55.4957 88.2656C55.4503 88.1813 55.3873 88.1146 55.3068 88.0653C55.2263 88.0161 55.1345 87.9915 55.0312 87.9915C54.9545 87.9915 54.883 88.0062 54.8168 88.0355C54.7505 88.0649 54.6927 88.1056 54.6435 88.1577C54.5942 88.2088 54.5554 88.2685 54.527 88.3366C54.4995 88.4039 54.4853 88.4759 54.4844 88.5526C54.4853 88.6539 54.509 88.7472 54.5554 88.8324C54.6018 88.9176 54.6657 88.9858 54.7472 89.0369C54.8286 89.0881 54.9209 89.1136 55.0241 89.1136Z" fill="#A0A3A6"/>
<path d="M54.1912 96.5L55.4284 94.0511V94.0312H53.9924V93.5909H55.9739V94.0412L54.7381 96.5H54.1912Z" fill="#A0A3A6"/>
<path d="M55.0016 103.54C54.7904 103.54 54.6029 103.504 54.4391 103.433C54.2762 103.362 54.1484 103.265 54.0556 103.142C53.9637 103.018 53.9183 102.877 53.9192 102.72C53.9183 102.598 53.9448 102.486 53.9988 102.384C54.0527 102.281 54.1257 102.196 54.2175 102.128C54.3103 102.059 54.4135 102.015 54.5272 101.996V101.976C54.3775 101.943 54.2563 101.866 54.1635 101.747C54.0717 101.627 54.0262 101.488 54.0272 101.331C54.0262 101.181 54.0679 101.048 54.1522 100.93C54.2364 100.813 54.352 100.721 54.4988 100.653C54.6455 100.585 54.8132 100.551 55.0016 100.551C55.1882 100.551 55.3543 100.585 55.5002 100.653C55.647 100.721 55.7625 100.813 55.8468 100.93C55.932 101.048 55.9746 101.181 55.9746 101.331C55.9746 101.488 55.9277 101.627 55.834 101.747C55.7412 101.866 55.6214 101.943 55.4746 101.976V101.996C55.5882 102.015 55.6905 102.059 55.7814 102.128C55.8733 102.196 55.9462 102.281 56.0002 102.384C56.0551 102.486 56.0826 102.598 56.0826 102.72C56.0826 102.877 56.0362 103.018 55.9434 103.142C55.8506 103.265 55.7227 103.362 55.5598 103.433C55.3979 103.504 55.2118 103.54 55.0016 103.54ZM55.0016 103.134C55.1105 103.134 55.2052 103.115 55.2857 103.078C55.3662 103.04 55.4287 102.987 55.4732 102.919C55.5177 102.851 55.5404 102.772 55.5414 102.683C55.5404 102.59 55.5163 102.509 55.4689 102.438C55.4225 102.366 55.3586 102.309 55.2772 102.268C55.1967 102.228 55.1048 102.207 55.0016 102.207C54.8974 102.207 54.8046 102.228 54.7232 102.268C54.6417 102.309 54.5774 102.366 54.53 102.438C54.4836 102.509 54.4609 102.59 54.4618 102.683C54.4609 102.772 54.4827 102.851 54.5272 102.919C54.5717 102.986 54.6342 103.039 54.7147 103.077C54.7961 103.115 54.8917 103.134 55.0016 103.134ZM55.0016 101.808C55.0906 101.808 55.1692 101.79 55.2374 101.754C55.3065 101.718 55.361 101.668 55.4007 101.604C55.4405 101.539 55.4609 101.465 55.4618 101.381C55.4609 101.297 55.441 101.224 55.4022 101.162C55.3633 101.098 55.3094 101.05 55.2402 101.016C55.1711 100.981 55.0916 100.963 55.0016 100.963C54.9097 100.963 54.8288 100.981 54.7587 101.016C54.6896 101.05 54.6356 101.098 54.5968 101.162C54.5589 101.224 54.5404 101.297 54.5414 101.381C54.5404 101.465 54.5594 101.539 54.5982 101.604C54.638 101.667 54.6924 101.717 54.7615 101.754C54.8316 101.79 54.9116 101.808 55.0016 101.808Z" fill="#A0A3A6"/>
<path d="M54.9716 107.551C55.1108 107.552 55.2462 107.577 55.3778 107.625C55.5104 107.672 55.6297 107.75 55.7358 107.858C55.8419 107.965 55.9261 108.108 55.9886 108.288C56.0511 108.468 56.0824 108.691 56.0824 108.956C56.0833 109.206 56.0568 109.429 56.0028 109.626C55.9498 109.822 55.8736 109.988 55.7741 110.124C55.6747 110.259 55.5549 110.362 55.4148 110.433C55.2746 110.504 55.117 110.54 54.9418 110.54C54.758 110.54 54.5952 110.504 54.4531 110.432C54.312 110.36 54.1979 110.261 54.1108 110.136C54.0237 110.011 53.9702 109.868 53.9503 109.707H54.4688C54.4953 109.823 54.5492 109.915 54.6307 109.983C54.7131 110.05 54.8168 110.084 54.9418 110.084C55.1435 110.084 55.2988 109.996 55.4077 109.821C55.5166 109.646 55.571 109.402 55.571 109.091H55.5511C55.5047 109.174 55.4446 109.246 55.3707 109.307C55.2969 109.366 55.2131 109.412 55.1193 109.445C55.0265 109.477 54.928 109.493 54.8239 109.493C54.6534 109.493 54.5 109.452 54.3636 109.371C54.2282 109.289 54.1207 109.178 54.0412 109.036C53.9626 108.893 53.9228 108.731 53.9219 108.548C53.9219 108.359 53.9654 108.189 54.0526 108.038C54.1406 107.887 54.2633 107.768 54.4205 107.68C54.5777 107.592 54.7614 107.549 54.9716 107.551ZM54.973 107.977C54.8707 107.977 54.7784 108.002 54.696 108.053C54.6146 108.102 54.5502 108.169 54.5028 108.254C54.4564 108.339 54.4332 108.433 54.4332 108.537C54.4342 108.64 54.4574 108.734 54.5028 108.818C54.5492 108.902 54.6122 108.969 54.6918 109.018C54.7723 109.068 54.8641 109.092 54.9673 109.092C55.044 109.092 55.1155 109.078 55.1818 109.048C55.2481 109.019 55.3059 108.978 55.3551 108.926C55.4053 108.873 55.4441 108.813 55.4716 108.746C55.5 108.679 55.5137 108.607 55.5128 108.533C55.5128 108.433 55.4891 108.341 55.4418 108.257C55.3954 108.173 55.3314 108.105 55.25 108.054C55.1695 108.003 55.0772 107.977 54.973 107.977Z" fill="#A0A3A6"/>
<path d="M53.2108 114.591V117.5H52.6839V115.104H52.6668L51.9864 115.538V115.055L52.7094 114.591H53.2108ZM54.8968 117.555C54.6629 117.555 54.4621 117.496 54.2945 117.378C54.1278 117.259 53.9995 117.087 53.9095 116.862C53.8205 116.637 53.776 116.366 53.776 116.048C53.777 115.731 53.8219 115.461 53.911 115.239C54.0009 115.015 54.1292 114.845 54.2959 114.727C54.4635 114.61 54.6638 114.551 54.8968 114.551C55.1297 114.551 55.33 114.61 55.4976 114.727C55.6652 114.845 55.7935 115.015 55.8826 115.239C55.9725 115.462 56.0175 115.732 56.0175 116.048C56.0175 116.366 55.9725 116.638 55.8826 116.864C55.7935 117.088 55.6652 117.259 55.4976 117.378C55.3309 117.496 55.1307 117.555 54.8968 117.555ZM54.8968 117.111C55.0786 117.111 55.222 117.021 55.3272 116.842C55.4332 116.662 55.4862 116.398 55.4862 116.048C55.4862 115.817 55.4621 115.623 55.4138 115.466C55.3655 115.309 55.2973 115.19 55.2093 115.111C55.1212 115.03 55.017 114.99 54.8968 114.99C54.7159 114.99 54.5729 115.08 54.4678 115.26C54.3627 115.439 54.3096 115.702 54.3087 116.048C54.3077 116.28 54.3309 116.475 54.3783 116.634C54.4266 116.792 54.4948 116.911 54.5828 116.991C54.6709 117.071 54.7755 117.111 54.8968 117.111Z" fill="#A0A3A6"/>
<path d="M54.0839 121.591V124.5H53.5569V122.104H53.5399L52.8595 122.538V122.055L53.5825 121.591H54.0839ZM55.8778 121.591V124.5H55.3508V122.104H55.3337L54.6533 122.538V122.055L55.3763 121.591H55.8778Z" fill="#A0A3A6"/>
<path d="M53.3026 128.591V131.5H52.7756V129.104H52.7586L52.0782 129.538V129.055L52.8012 128.591H53.3026ZM53.9133 131.5V131.119L54.9232 130.129C55.0198 130.032 55.1003 129.945 55.1647 129.869C55.2291 129.794 55.2774 129.72 55.3096 129.649C55.3418 129.578 55.3579 129.502 55.3579 129.422C55.3579 129.33 55.337 129.251 55.2954 129.186C55.2537 129.12 55.1964 129.069 55.1235 129.033C55.0506 128.997 54.9677 128.979 54.8749 128.979C54.7793 128.979 54.6955 128.999 54.6235 129.038C54.5515 129.077 54.4957 129.133 54.4559 129.205C54.4171 129.277 54.3976 129.362 54.3976 129.462H53.8962C53.8962 129.277 53.9384 129.116 54.0226 128.98C54.1069 128.844 54.2229 128.738 54.3707 128.663C54.5193 128.589 54.6898 128.551 54.882 128.551C55.0771 128.551 55.2485 128.588 55.3962 128.661C55.544 128.733 55.6585 128.833 55.74 128.96C55.8224 129.087 55.8636 129.232 55.8636 129.395C55.8636 129.504 55.8427 129.611 55.8011 129.716C55.7594 129.821 55.686 129.937 55.5809 130.065C55.4767 130.193 55.3304 130.348 55.142 130.53L54.6405 131.04V131.06H55.9076V131.5H53.9133Z" fill="#A0A3A6"/>
<path d="M53.2421 135.591V138.5H52.7151V136.104H52.6981L52.0177 136.538V136.055L52.7407 135.591H53.2421ZM54.8968 138.54C54.6922 138.54 54.5104 138.505 54.3513 138.435C54.1932 138.365 54.0682 138.267 53.9763 138.142C53.8844 138.017 53.8357 137.873 53.83 137.709H54.3641C54.3688 137.787 54.3949 137.856 54.4422 137.915C54.4896 137.973 54.5525 138.018 54.6311 138.05C54.7097 138.082 54.7978 138.098 54.8953 138.098C54.9995 138.098 55.0918 138.08 55.1723 138.044C55.2528 138.007 55.3158 137.956 55.3612 137.891C55.4067 137.825 55.429 137.75 55.428 137.665C55.429 137.577 55.4062 137.499 55.3598 137.432C55.3134 137.365 55.2462 137.312 55.1581 137.274C55.071 137.236 54.9659 137.217 54.8428 137.217H54.5857V136.811H54.8428C54.9441 136.811 55.0327 136.794 55.1084 136.759C55.1851 136.723 55.2452 136.674 55.2888 136.611C55.3324 136.546 55.3537 136.472 55.3527 136.388C55.3537 136.305 55.3352 136.234 55.2973 136.173C55.2604 136.112 55.2078 136.064 55.1397 136.03C55.0724 135.996 54.9934 135.979 54.9024 135.979C54.8134 135.979 54.731 135.995 54.6553 136.027C54.5795 136.059 54.5184 136.105 54.472 136.165C54.4256 136.223 54.401 136.294 54.3982 136.375H53.8911C53.8949 136.212 53.9417 136.069 54.0317 135.946C54.1226 135.822 54.2438 135.725 54.3953 135.656C54.5469 135.586 54.7168 135.551 54.9053 135.551C55.0994 135.551 55.268 135.588 55.411 135.661C55.5549 135.732 55.6662 135.83 55.7448 135.952C55.8234 136.074 55.8627 136.209 55.8627 136.357C55.8636 136.52 55.8153 136.658 55.7178 136.768C55.6212 136.879 55.4943 136.952 55.3371 136.986V137.009C55.5416 137.037 55.6984 137.113 55.8073 137.236C55.9171 137.358 55.9716 137.51 55.9706 137.692C55.9706 137.855 55.9242 138 55.8314 138.129C55.7396 138.257 55.6127 138.357 55.4507 138.43C55.2898 138.503 55.1051 138.54 54.8968 138.54Z" fill="#A0A3A6"/>
<path d="M53.2128 142.591V145.5H52.6858V143.104H52.6688L51.9884 143.538V143.055L52.7114 142.591H53.2128ZM53.7709 144.96V144.541L55.0052 142.591H55.3547V143.188H55.1416L54.3106 144.504V144.527H56.0337V144.96H53.7709ZM55.1587 145.5V144.832L55.1643 144.645V142.591H55.6615V145.5H55.1587Z" fill="#A0A3A6"/>
<path d="M53.2792 149.591V152.5H52.7522V150.104H52.7352L52.0548 150.538V150.055L52.7778 149.591H53.2792ZM54.9012 152.54C54.7118 152.54 54.5423 152.504 54.3927 152.433C54.2431 152.361 54.1242 152.263 54.0361 152.138C53.949 152.013 53.9026 151.87 53.8969 151.709H54.4083C54.4178 151.828 54.4694 151.926 54.5631 152.001C54.6569 152.076 54.7696 152.114 54.9012 152.114C55.0044 152.114 55.0963 152.09 55.1768 152.043C55.2573 151.995 55.3207 151.929 55.3671 151.845C55.4135 151.761 55.4362 151.665 55.4353 151.557C55.4362 151.447 55.413 151.349 55.3657 151.264C55.3183 151.179 55.2535 151.112 55.1711 151.064C55.0887 151.015 54.994 150.99 54.887 150.99C54.7999 150.989 54.7142 151.005 54.6299 151.038C54.5456 151.071 54.4789 151.115 54.4296 151.169L53.9538 151.091L54.1057 149.591H55.7932V150.031H54.5418L54.458 150.803H54.4751C54.529 150.739 54.6053 150.687 54.7038 150.645C54.8022 150.602 54.9102 150.581 55.0276 150.581C55.2038 150.581 55.361 150.623 55.4992 150.706C55.6375 150.788 55.7464 150.902 55.8259 151.047C55.9055 151.192 55.9452 151.357 55.9452 151.544C55.9452 151.736 55.9007 151.908 55.8117 152.058C55.7236 152.208 55.601 152.326 55.4438 152.412C55.2876 152.497 55.1067 152.54 54.9012 152.54Z" fill="#A0A3A6"/>
<path d="M53.2666 156.591V159.5H52.6515V157.175H52.6345L51.9683 157.592V157.047L52.6885 156.591H53.2666ZM54.9465 159.54C54.7969 159.539 54.6524 159.514 54.5132 159.464C54.375 159.415 54.2509 159.335 54.1411 159.224C54.0312 159.114 53.9441 158.967 53.8797 158.784C53.8163 158.601 53.7845 158.377 53.7845 158.111C53.7855 157.866 53.8134 157.648 53.8684 157.456C53.9242 157.263 54.0038 157.099 54.107 156.964C54.2112 156.83 54.3357 156.728 54.4806 156.658C54.6255 156.587 54.7879 156.551 54.9678 156.551C55.1619 156.551 55.3333 156.589 55.482 156.665C55.6307 156.74 55.75 156.841 55.8399 156.97C55.9309 157.099 55.9858 157.243 56.0047 157.403H55.3982C55.3745 157.302 55.3248 157.223 55.249 157.165C55.1733 157.107 55.0795 157.078 54.9678 157.078C54.7784 157.078 54.6344 157.161 54.536 157.325C54.4384 157.49 54.3887 157.714 54.3868 157.997H54.4067C54.4503 157.911 54.509 157.838 54.5828 157.777C54.6576 157.715 54.7424 157.669 54.8371 157.636C54.9327 157.603 55.0336 157.587 55.1397 157.587C55.312 157.587 55.4654 157.627 55.5999 157.709C55.7344 157.789 55.8404 157.9 55.9181 158.041C55.9957 158.182 56.0345 158.344 56.0345 158.526C56.0345 158.723 55.9886 158.898 55.8968 159.051C55.8059 159.205 55.6785 159.325 55.5147 159.412C55.3518 159.498 55.1624 159.541 54.9465 159.54ZM54.9436 159.057C55.0383 159.057 55.1231 159.034 55.1979 158.989C55.2727 158.943 55.3314 158.882 55.374 158.804C55.4166 158.726 55.438 158.639 55.438 158.543C55.438 158.446 55.4166 158.359 55.374 158.283C55.3324 158.206 55.2746 158.145 55.2007 158.099C55.1269 158.054 55.0426 158.031 54.9479 158.031C54.8769 158.031 54.8111 158.045 54.7505 158.071C54.6908 158.098 54.6382 158.134 54.5928 158.182C54.5483 158.229 54.5132 158.284 54.4877 158.347C54.4621 158.408 54.4493 158.474 54.4493 158.544C54.4493 158.638 54.4706 158.723 54.5132 158.801C54.5568 158.879 54.6155 158.941 54.6894 158.987C54.7642 159.034 54.8489 159.057 54.9436 159.057Z" fill="#2563EB"/>
<path d="M53.371 163.591V166.5H52.844V164.104H52.827L52.1466 164.538V164.055L52.8696 163.591H53.371ZM54.0882 166.5L55.3254 164.051V164.031H53.8893V163.591H55.8708V164.041L54.635 166.5H54.0882Z" fill="#A0A3A6"/>
<path d="M53.2538 170.591V173.5H52.7268V171.104H52.7098L52.0294 171.538V171.055L52.7524 170.591H53.2538ZM54.8985 173.54C54.6874 173.54 54.4999 173.504 54.336 173.433C54.1732 173.362 54.0453 173.265 53.9525 173.142C53.8607 173.018 53.8152 172.877 53.8161 172.72C53.8152 172.598 53.8417 172.486 53.8957 172.384C53.9497 172.281 54.0226 172.196 54.1144 172.128C54.2072 172.059 54.3105 172.015 54.4241 171.996V171.976C54.2745 171.943 54.1533 171.866 54.0605 171.747C53.9686 171.627 53.9232 171.488 53.9241 171.331C53.9232 171.181 53.9648 171.048 54.0491 170.93C54.1334 170.813 54.2489 170.721 54.3957 170.653C54.5425 170.585 54.7101 170.551 54.8985 170.551C55.0851 170.551 55.2513 170.585 55.3971 170.653C55.5439 170.721 55.6594 170.813 55.7437 170.93C55.8289 171.048 55.8715 171.181 55.8715 171.331C55.8715 171.488 55.8247 171.627 55.7309 171.747C55.6381 171.866 55.5183 171.943 55.3715 171.976V171.996C55.4852 172.015 55.5875 172.059 55.6784 172.128C55.7702 172.196 55.8431 172.281 55.8971 172.384C55.952 172.486 55.9795 172.598 55.9795 172.72C55.9795 172.877 55.9331 173.018 55.8403 173.142C55.7475 173.265 55.6197 173.362 55.4568 173.433C55.2948 173.504 55.1088 173.54 54.8985 173.54ZM54.8985 173.134C55.0074 173.134 55.1021 173.115 55.1826 173.078C55.2631 173.04 55.3256 172.987 55.3701 172.919C55.4146 172.851 55.4374 172.772 55.4383 172.683C55.4374 172.59 55.4132 172.509 55.3659 172.438C55.3195 172.366 55.2555 172.309 55.1741 172.268C55.0936 172.228 55.0018 172.207 54.8985 172.207C54.7944 172.207 54.7016 172.228 54.6201 172.268C54.5387 172.309 54.4743 172.366 54.4269 172.438C54.3805 172.509 54.3578 172.59 54.3588 172.683C54.3578 172.772 54.3796 172.851 54.4241 172.919C54.4686 172.986 54.5311 173.039 54.6116 173.077C54.693 173.115 54.7887 173.134 54.8985 173.134ZM54.8985 171.808C54.9876 171.808 55.0661 171.79 55.1343 171.754C55.2035 171.718 55.2579 171.668 55.2977 171.604C55.3375 171.539 55.3578 171.465 55.3588 171.381C55.3578 171.297 55.3379 171.224 55.2991 171.162C55.2603 171.098 55.2063 171.05 55.1372 171.016C55.068 170.981 54.9885 170.963 54.8985 170.963C54.8067 170.963 54.7257 170.981 54.6556 171.016C54.5865 171.05 54.5325 171.098 54.4937 171.162C54.4558 171.224 54.4374 171.297 54.4383 171.381C54.4374 171.465 54.4563 171.539 54.4951 171.604C54.5349 171.667 54.5893 171.717 54.6585 171.754C54.7286 171.79 54.8086 171.808 54.8985 171.808Z" fill="#A0A3A6"/>
<path d="M53.2479 177.591V180.5H52.721V178.104H52.7039L52.0235 178.538V178.055L52.7465 177.591H53.2479ZM54.8685 177.551C55.0077 177.552 55.1431 177.577 55.2748 177.625C55.4074 177.672 55.5267 177.75 55.6327 177.858C55.7388 177.965 55.8231 178.108 55.8856 178.288C55.9481 178.468 55.9793 178.691 55.9793 178.956C55.9803 179.206 55.9538 179.429 55.8998 179.626C55.8467 179.822 55.7705 179.988 55.6711 180.124C55.5717 180.259 55.4519 180.362 55.3117 180.433C55.1716 180.504 55.0139 180.54 54.8387 180.54C54.655 180.54 54.4921 180.504 54.3501 180.432C54.209 180.36 54.0949 180.261 54.0077 180.136C53.9206 180.011 53.8671 179.868 53.8472 179.707H54.3657C54.3922 179.823 54.4462 179.915 54.5276 179.983C54.61 180.05 54.7137 180.084 54.8387 180.084C55.0404 180.084 55.1957 179.996 55.3046 179.821C55.4135 179.646 55.468 179.402 55.468 179.091H55.4481C55.4017 179.174 55.3415 179.246 55.2677 179.307C55.1938 179.366 55.11 179.412 55.0163 179.445C54.9235 179.477 54.825 179.493 54.7208 179.493C54.5503 179.493 54.3969 179.452 54.2606 179.371C54.1252 179.289 54.0177 179.178 53.9381 179.036C53.8595 178.893 53.8198 178.731 53.8188 178.548C53.8188 178.359 53.8624 178.189 53.9495 178.038C54.0376 177.887 54.1602 177.768 54.3174 177.68C54.4746 177.592 54.6583 177.549 54.8685 177.551ZM54.8699 177.977C54.7677 177.977 54.6753 178.002 54.593 178.053C54.5115 178.102 54.4471 178.169 54.3998 178.254C54.3534 178.339 54.3302 178.433 54.3302 178.537C54.3311 178.64 54.3543 178.734 54.3998 178.818C54.4462 178.902 54.5092 178.969 54.5887 179.018C54.6692 179.068 54.761 179.092 54.8643 179.092C54.941 179.092 55.0125 179.078 55.0788 179.048C55.145 179.019 55.2028 178.978 55.2521 178.926C55.3022 178.873 55.3411 178.813 55.3685 178.746C55.3969 178.679 55.4107 178.607 55.4097 178.533C55.4097 178.433 55.386 178.341 55.3387 178.257C55.2923 178.173 55.2284 178.105 55.1469 178.054C55.0664 178.003 54.9741 177.977 54.8699 177.977Z" fill="#A0A3A6"/>
<path d="M51.2464 187.5V187.119L52.2563 186.129C52.3529 186.032 52.4334 185.945 52.4978 185.869C52.5622 185.794 52.6105 185.72 52.6427 185.649C52.6749 185.578 52.691 185.502 52.691 185.422C52.691 185.33 52.6701 185.251 52.6285 185.186C52.5868 185.12 52.5295 185.069 52.4566 185.033C52.3837 184.997 52.3008 184.979 52.208 184.979C52.1124 184.979 52.0285 184.999 51.9566 185.038C51.8846 185.077 51.8287 185.133 51.789 185.205C51.7501 185.277 51.7307 185.362 51.7307 185.462H51.2293C51.2293 185.277 51.2714 185.116 51.3557 184.98C51.44 184.844 51.556 184.738 51.7037 184.663C51.8524 184.589 52.0229 184.551 52.2151 184.551C52.4102 184.551 52.5816 184.588 52.7293 184.661C52.877 184.733 52.9916 184.833 53.0731 184.96C53.1554 185.087 53.1966 185.232 53.1966 185.395C53.1966 185.504 53.1758 185.611 53.1341 185.716C53.0925 185.821 53.0191 185.937 52.914 186.065C52.8098 186.193 52.6635 186.348 52.475 186.53L51.9736 187.04V187.06H53.2407V187.5H51.2464ZM54.678 187.555C54.4441 187.555 54.2434 187.496 54.0757 187.378C53.9091 187.259 53.7808 187.087 53.6908 186.862C53.6018 186.637 53.5573 186.366 53.5573 186.048C53.5582 185.731 53.6032 185.461 53.6922 185.239C53.7822 185.015 53.9105 184.845 54.0772 184.727C54.2448 184.61 54.4451 184.551 54.678 184.551C54.911 184.551 55.1112 184.61 55.2789 184.727C55.4465 184.845 55.5748 185.015 55.6638 185.239C55.7538 185.462 55.7987 185.732 55.7987 186.048C55.7987 186.366 55.7538 186.638 55.6638 186.864C55.5748 187.088 55.4465 187.259 55.2789 187.378C55.1122 187.496 54.9119 187.555 54.678 187.555ZM54.678 187.111C54.8598 187.111 55.0033 187.021 55.1084 186.842C55.2145 186.662 55.2675 186.398 55.2675 186.048C55.2675 185.817 55.2434 185.623 55.1951 185.466C55.1468 185.309 55.0786 185.19 54.9905 185.111C54.9024 185.03 54.7983 184.99 54.678 184.99C54.4971 184.99 54.3541 185.08 54.249 185.26C54.1439 185.439 54.0909 185.702 54.0899 186.048C54.089 186.28 54.1122 186.475 54.1595 186.634C54.2078 186.792 54.276 186.911 54.3641 186.991C54.4522 187.071 54.5568 187.111 54.678 187.111Z" fill="#A0A3A6"/>
<path d="M52.1194 194.5V194.119L53.1293 193.129C53.2259 193.032 53.3064 192.945 53.3708 192.869C53.4352 192.794 53.4835 192.72 53.5157 192.649C53.5479 192.578 53.564 192.502 53.564 192.422C53.564 192.33 53.5432 192.251 53.5015 192.186C53.4598 192.12 53.4025 192.069 53.3296 192.033C53.2567 191.997 53.1738 191.979 53.081 191.979C52.9854 191.979 52.9016 191.999 52.8296 192.038C52.7577 192.077 52.7018 192.133 52.662 192.205C52.6232 192.277 52.6038 192.362 52.6038 192.462H52.1024C52.1024 192.277 52.1445 192.116 52.2288 191.98C52.3131 191.844 52.4291 191.738 52.5768 191.663C52.7255 191.589 52.8959 191.551 53.0881 191.551C53.2832 191.551 53.4546 191.588 53.6024 191.661C53.7501 191.733 53.8647 191.833 53.9461 191.96C54.0285 192.087 54.0697 192.232 54.0697 192.395C54.0697 192.504 54.0488 192.611 54.0072 192.716C53.9655 192.821 53.8921 192.937 53.787 193.065C53.6828 193.193 53.5365 193.348 53.3481 193.53L52.8467 194.04V194.06H54.1137V194.5H52.1194ZM55.659 191.591V194.5H55.132V192.104H55.115L54.4346 192.538V192.055L55.1576 191.591H55.659Z" fill="#A0A3A6"/>
<path d="M63.2132 69.5H62.6507L63.6749 66.5909H64.3255L65.351 69.5H64.7885L64.0115 67.1875H63.9888L63.2132 69.5ZM63.2317 68.3594H64.7658V68.7827H63.2317V68.3594Z" fill="#A0A3A6"/>
<path d="M71.2907 40.5724H70.7594C70.7443 40.4853 70.7163 40.4081 70.6756 40.3409C70.6349 40.2727 70.5842 40.215 70.5236 40.1676C70.463 40.1203 70.3939 40.0848 70.3162 40.0611C70.2395 40.0365 70.1567 40.0241 70.0676 40.0241C69.9095 40.0241 69.7694 40.0639 69.6472 40.1435C69.525 40.2221 69.4294 40.3376 69.3603 40.4901C69.2911 40.6416 69.2566 40.8267 69.2566 41.0455C69.2566 41.268 69.2911 41.4555 69.3603 41.608C69.4303 41.7595 69.526 41.8741 69.6472 41.9517C69.7694 42.0284 69.909 42.0668 70.0662 42.0668C70.1533 42.0668 70.2348 42.0554 70.3105 42.0327C70.3873 42.009 70.4559 41.9744 70.5165 41.929C70.5781 41.8835 70.6297 41.8277 70.6713 41.7614C70.714 41.6951 70.7433 41.6193 70.7594 41.5341L71.2907 41.5369C71.2708 41.6752 71.2277 41.8049 71.1614 41.9261C71.0961 42.0473 71.0104 42.1544 70.9043 42.2472C70.7982 42.339 70.6742 42.411 70.5321 42.4631C70.3901 42.5142 70.2324 42.5398 70.0591 42.5398C69.8034 42.5398 69.5752 42.4806 69.3745 42.3622C69.1737 42.2438 69.0156 42.0729 68.9 41.8494C68.7845 41.6259 68.7267 41.358 68.7267 41.0455C68.7267 40.732 68.785 40.464 68.9015 40.2415C69.0179 40.018 69.1766 39.8471 69.3773 39.7287C69.5781 39.6103 69.8053 39.5511 70.0591 39.5511C70.2211 39.5511 70.3716 39.5739 70.5108 39.6193C70.65 39.6648 70.7741 39.7315 70.883 39.8196C70.9919 39.9067 71.0814 40.0137 71.1515 40.1406C71.2225 40.2666 71.2689 40.4105 71.2907 40.5724Z" fill="#A0A3A6"/>
<path d="M71.2907 67.5724H70.7594C70.7443 67.4853 70.7163 67.4081 70.6756 67.3409C70.6349 67.2727 70.5842 67.215 70.5236 67.1676C70.463 67.1203 70.3939 67.0848 70.3162 67.0611C70.2395 67.0365 70.1567 67.0241 70.0676 67.0241C69.9095 67.0241 69.7694 67.0639 69.6472 67.1435C69.525 67.2221 69.4294 67.3376 69.3603 67.4901C69.2911 67.6416 69.2566 67.8267 69.2566 68.0455C69.2566 68.268 69.2911 68.4555 69.3603 68.608C69.4303 68.7595 69.526 68.8741 69.6472 68.9517C69.7694 69.0284 69.909 69.0668 70.0662 69.0668C70.1533 69.0668 70.2348 69.0554 70.3105 69.0327C70.3873 69.009 70.4559 68.9744 70.5165 68.929C70.5781 68.8835 70.6297 68.8277 70.6713 68.7614C70.714 68.6951 70.7433 68.6193 70.7594 68.5341L71.2907 68.5369C71.2708 68.6752 71.2277 68.8049 71.1614 68.9261C71.0961 69.0473 71.0104 69.1544 70.9043 69.2472C70.7982 69.339 70.6742 69.411 70.5321 69.4631C70.3901 69.5142 70.2324 69.5398 70.0591 69.5398C69.8034 69.5398 69.5752 69.4806 69.3745 69.3622C69.1737 69.2438 69.0156 69.0729 68.9 68.8494C68.7845 68.6259 68.7267 68.358 68.7267 68.0455C68.7267 67.732 68.785 67.464 68.9015 67.2415C69.0179 67.018 69.1766 66.8471 69.3773 66.7287C69.5781 66.6103 69.8053 66.5511 70.0591 66.5511C70.2211 66.5511 70.3716 66.5739 70.5108 66.6193C70.65 66.6648 70.7741 66.7315 70.883 66.8196C70.9919 66.9067 71.0814 67.0137 71.1515 67.1406C71.2225 67.2666 71.2689 67.4105 71.2907 67.5724Z" fill="#A0A3A6"/>
<path d="M86.8235 42.5H85.8377V39.5909H86.8434C87.1322 39.5909 87.3803 39.6491 87.5877 39.7656C87.796 39.8812 87.9561 40.0473 88.0678 40.2642C88.1796 40.4811 88.2354 40.7405 88.2354 41.0426C88.2354 41.3456 88.1791 41.6061 88.0664 41.8239C87.9547 42.0417 87.7932 42.2088 87.582 42.3253C87.3718 42.4418 87.119 42.5 86.8235 42.5ZM86.3647 42.044H86.7979C87.0006 42.044 87.1696 42.0071 87.305 41.9332C87.4405 41.8584 87.5423 41.7472 87.6104 41.5994C87.6786 41.4508 87.7127 41.2652 87.7127 41.0426C87.7127 40.8201 87.6786 40.6354 87.6104 40.4886C87.5423 40.3409 87.4414 40.2306 87.3079 40.1577C87.1753 40.0838 87.0105 40.0469 86.8136 40.0469H86.3647V42.044Z" fill="#A0A3A6"/>
<path d="M80.8235 69.5H79.8377V66.5909H80.8434C81.1322 66.5909 81.3803 66.6491 81.5877 66.7656C81.796 66.8812 81.9561 67.0473 82.0678 67.2642C82.1796 67.4811 82.2354 67.7405 82.2354 68.0426C82.2354 68.3456 82.1791 68.6061 82.0664 68.8239C81.9547 69.0417 81.7932 69.2088 81.582 69.3253C81.3718 69.4418 81.119 69.5 80.8235 69.5ZM80.3647 69.044H80.7979C81.0006 69.044 81.1696 69.0071 81.305 68.9332C81.4405 68.8584 81.5423 68.7472 81.6104 68.5994C81.6786 68.4508 81.7127 68.2652 81.7127 68.0426C81.7127 67.8201 81.6786 67.6354 81.6104 67.4886C81.5423 67.3409 81.4414 67.2306 81.3079 67.1577C81.1753 67.0838 81.0105 67.0469 80.8136 67.0469H80.3647V69.044Z" fill="#A0A3A6"/>
<path d="M92.1151 42.5V39.5909H93.9787V40.0327H92.642V40.8224H93.8509V41.2642H92.642V42.5H92.1151Z" fill="#A0A3A6"/>
<path d="M92.0829 69.5V66.5909H94.0091V67.098H92.698V67.7912H93.8812V68.2983H92.698V69.5H92.0829Z" fill="#2563EB"/>
<path d="M86.0721 69.5V66.5909H87.9641V67.0327H86.5991V67.8224H87.8661V68.2642H86.5991V69.0582H87.9755V69.5H86.0721Z" fill="#A0A3A6"/>
<defs>
<linearGradient id="paint0_linear_218_25902" x1="98.5" y1="129.5" x2="149" y2="157.5" gradientUnits="userSpaceOnUse">
<stop stop-color="#F7F7F7"/>
<stop offset="0.989264" stop-color="#F7F7F7" stop-opacity="0"/>
</linearGradient>
<linearGradient id="paint1_linear_218_25902" x1="98.5" y1="129.5" x2="149" y2="157.5" gradientUnits="userSpaceOnUse">
<stop stop-color="#C8C8C6"/>
<stop offset="1" stop-opacity="0"/>
</linearGradient>
<linearGradient id="paint2_linear_218_25902" x1="58.5" y1="129.5" x2="8" y2="157.5" gradientUnits="userSpaceOnUse">
<stop stop-color="#F7F7F7"/>
<stop offset="0.989264" stop-color="#F7F7F7" stop-opacity="0"/>
</linearGradient>
<linearGradient id="paint3_linear_218_25902" x1="58.5" y1="129.5" x2="8" y2="157.5" gradientUnits="userSpaceOnUse">
<stop stop-color="#C8C8C6"/>
<stop offset="1" stop-opacity="0"/>
</linearGradient>
</defs>
</svg>
