<svg width="24" height="24" viewBox="0 0 24 24" fill="none" xmlns="http://www.w3.org/2000/svg">
<path d="M12 8C11.4067 8 10.8266 8.17595 10.3333 8.50559C9.83994 8.83524 9.45543 9.30377 9.22836 9.85195C9.0013 10.4001 8.94189 11.0033 9.05765 11.5853C9.1734 12.1672 9.45912 12.7018 9.87868 13.1213C10.2982 13.5409 10.8328 13.8266 11.4147 13.9424C11.9967 14.0581 12.5999 13.9987 13.1481 13.7716C13.6962 13.5446 14.1648 13.1601 14.4944 12.6667C14.8241 12.1734 15 11.5933 15 11C15 10.2043 14.6839 9.44129 14.1213 8.87868C13.5587 8.31607 12.7957 8 12 8ZM12 12.5C11.7033 12.5 11.4133 12.412 11.1666 12.2472C10.92 12.0824 10.7277 11.8481 10.6142 11.574C10.5007 11.2999 10.4709 10.9983 10.5288 10.7074C10.5867 10.4164 10.7296 10.1491 10.9393 9.93934C11.1491 9.72956 11.4164 9.5867 11.7074 9.52882C11.9983 9.47094 12.2999 9.50065 12.574 9.61418C12.8481 9.72771 13.0824 9.91997 13.2472 10.1666C13.412 10.4133 13.5 10.7033 13.5 11C13.5 11.3978 13.342 11.7794 13.0607 12.0607C12.7794 12.342 12.3978 12.5 12 12.5Z" fill="#172B4D"/>
<path d="M12 21.9999C11.33 22.0034 10.669 21.847 10.0723 21.544C9.4755 21.241 8.96039 20.8002 8.57006 20.2584C5.53794 16.097 4 12.9686 4 10.9595C4 8.84853 4.84285 6.82399 6.34315 5.33129C7.84344 3.83859 9.87827 3 12 3C14.1217 3 16.1566 3.83859 17.6569 5.33129C19.1571 6.82399 20 8.84853 20 10.9595C20 12.9686 18.4621 16.097 15.4299 20.2584C15.0396 20.8002 14.5245 21.241 13.9277 21.544C13.331 21.847 12.67 22.0034 12 21.9999ZM12 4.72806C10.3391 4.72994 8.74671 5.38724 7.57225 6.55576C6.39779 7.72427 5.73715 9.30858 5.73526 10.9611C5.73526 12.5522 7.24137 15.4946 9.97514 19.246C10.2072 19.564 10.5117 19.8229 10.8636 20.0014C11.2156 20.1799 11.605 20.2729 12 20.2729C12.395 20.2729 12.7844 20.1799 13.1364 20.0014C13.4883 19.8229 13.7928 19.564 14.0249 19.246C16.7586 15.4946 18.2647 12.5522 18.2647 10.9611C18.2628 9.30858 17.6022 7.72427 16.4277 6.55576C15.2533 5.38724 13.6609 4.72994 12 4.72806Z" fill="#172B4D"/>
</svg>
