<svg width="16" height="16" viewBox="0 0 16 16" fill="none" xmlns="http://www.w3.org/2000/svg">
<path d="M5.125 13.4316H10.7031C11.459 13.4316 11.8281 13.0566 11.8281 12.2363V7.93555C11.8281 7.19727 11.5234 6.81641 10.8965 6.75195V5.27539C10.8965 3.06641 9.44922 2 7.91406 2C6.37891 2 4.93164 3.06641 4.93164 5.27539V6.78125C4.35742 6.86914 4 7.24414 4 7.93555V12.2363C4 13.0566 4.36914 13.4316 5.125 13.4316ZM5.875 5.15234C5.875 3.68164 6.81836 2.90234 7.91406 2.90234C9.00977 2.90234 9.95312 3.68164 9.95312 5.15234V6.74609L5.875 6.75195V5.15234Z" fill="#9E9E9E"/>
</svg>
