<svg width="24" height="24" viewBox="0 0 24 24" fill="none" xmlns="http://www.w3.org/2000/svg">
<rect width="24" height="24" fill="white" fill-opacity="0.01"/>
<path fill-rule="evenodd" clip-rule="evenodd" d="M12.7662 3.98269C13.0092 4.08337 13.2299 4.23093 13.4159 4.41694L19.5839 10.5839C19.77 10.7699 19.9177 10.9907 20.0185 11.2337C20.1192 11.4768 20.1711 11.7373 20.1711 12.0004C20.1711 12.2636 20.1192 12.5241 20.0185 12.7671C19.9177 13.0102 19.77 13.231 19.5839 13.4169L13.4159 19.5839C13.2299 19.77 13.0092 19.9175 12.7662 20.0182C12.5233 20.1189 12.2629 20.1707 11.9999 20.1707C11.7369 20.1707 11.4764 20.1189 11.2335 20.0182C10.9905 19.9175 10.7698 19.77 10.5839 19.5839L4.41586 13.4169C4.22969 13.231 4.08201 13.0102 3.98124 12.7671C3.88048 12.5241 3.82861 12.2636 3.82861 12.0004C3.82861 11.7373 3.88048 11.4768 3.98124 11.2337C4.08201 10.9907 4.22969 10.7699 4.41586 10.5839L10.5839 4.41694C10.7698 4.23093 10.9905 4.08337 11.2335 3.98269C11.4764 3.88202 11.7369 3.8302 11.9999 3.8302C12.2629 3.8302 12.5233 3.88202 12.7662 3.98269ZM11.2927 13.707C11.4803 13.8946 11.7346 13.9999 11.9999 13.9999C12.2651 13.9999 12.5194 13.8946 12.707 13.707C12.8945 13.5195 12.9999 13.2652 12.9999 12.9999V7.99994C12.9999 7.73472 12.8945 7.48037 12.707 7.29283C12.5194 7.1053 12.2651 6.99994 11.9999 6.99994C11.7346 6.99994 11.4803 7.1053 11.2927 7.29283C11.1052 7.48037 10.9999 7.73472 10.9999 7.99994V12.9999C10.9999 13.2652 11.1052 13.5195 11.2927 13.707ZM11.2927 16.707C11.4803 16.8946 11.7346 16.9999 11.9999 16.9999C12.2651 16.9999 12.5194 16.8946 12.707 16.707C12.8945 16.5195 12.9999 16.2652 12.9999 15.9999C12.9999 15.7347 12.8945 15.4804 12.707 15.2928C12.5194 15.1053 12.2651 14.9999 11.9999 14.9999C11.7346 14.9999 11.4803 15.1053 11.2927 15.2928C11.1052 15.4804 10.9999 15.7347 10.9999 15.9999C10.9999 16.2652 11.1052 16.5195 11.2927 16.707Z" fill="white"/>
</svg>
