<svg width="16" height="16" viewBox="0 0 16 16" fill="none" xmlns="http://www.w3.org/2000/svg">
<path d="M7.78125 7.61523C7.92773 7.61523 8.03906 7.56836 8.12109 7.48047L10.5352 5.05469C10.6406 4.95508 10.6816 4.83789 10.6816 4.70312C10.6816 4.57422 10.6289 4.44531 10.5352 4.35156L8.12109 1.90234C8.03906 1.80859 7.92188 1.76172 7.78125 1.76172C7.51758 1.76172 7.31836 1.97266 7.31836 2.24219C7.31836 2.36523 7.36523 2.48242 7.44727 2.57617L9.01172 4.11133C8.67773 4.05273 8.33789 4.01758 7.99805 4.01758C5.12695 4.01758 2.81836 6.32031 2.81836 9.19141C2.81836 12.0684 5.12695 14.377 7.99805 14.377C10.8691 14.377 13.1719 12.0684 13.1719 9.19141C13.1719 8.91016 12.9727 8.70508 12.6855 8.70508C12.4102 8.70508 12.2285 8.91016 12.2285 9.19141C12.2285 11.5469 10.3477 13.4336 7.99805 13.4336C5.64844 13.4336 3.76172 11.5469 3.76172 9.19141C3.76172 6.8418 5.64844 4.96094 7.99805 4.96094C8.44336 4.96094 8.85352 4.99609 9.20508 5.07227L7.45312 6.8125C7.36523 6.90625 7.31836 7.02344 7.31836 7.14648C7.31836 7.41602 7.51758 7.61523 7.78125 7.61523Z" fill="#797979"/>
</svg>
