<svg width="24" height="16" viewBox="0 0 24 16" fill="none" xmlns="http://www.w3.org/2000/svg">
<g clip-path="url(#clip0_332_26341)">
<path d="M0 10.6667H24V16.0001H0V10.6667Z" fill="#1EB53A"/>
<path d="M0 0H24V5.33333H0V0Z" fill="#0099B5"/>
<path d="M0 5.12012H24V10.8801H0V5.12012Z" fill="#CE1126"/>
<path d="M0 5.43994H24V10.5599H0V5.43994Z" fill="white"/>
<path d="M5.03988 4.47989C6.23282 4.47989 7.19988 3.62028 7.19988 2.55989C7.19988 1.49951 6.23282 0.639893 5.03988 0.639893C3.84695 0.639893 2.87988 1.49951 2.87988 2.55989C2.87988 3.62028 3.84695 4.47989 5.03988 4.47989Z" fill="white"/>
<path d="M5.7601 4.47989C6.95303 4.47989 7.9201 3.62028 7.9201 2.55989C7.9201 1.49951 6.95303 0.639893 5.7601 0.639893C4.56716 0.639893 3.6001 1.49951 3.6001 2.55989C3.6001 3.62028 4.56716 4.47989 5.7601 4.47989Z" fill="#0099B5"/>
<path d="M9.79159 3.71265L9.65479 4.07745L9.86359 4.14145" fill="white"/>
<path d="M9.79142 3.71265L9.92822 4.07745L9.71942 4.14145" fill="white"/>
<path d="M10.2002 3.98263L9.76872 3.96896L9.77117 4.17133" fill="white"/>
<path d="M10.1987 3.98026L9.85905 4.20724L9.72132 4.04229" fill="white"/>
<path d="M9.3843 3.9805L9.72395 4.20748L9.86169 4.04254" fill="white"/>
<path d="M9.38279 3.98263L9.81429 3.96896L9.81184 4.17133" fill="white"/>
<path d="M10.0482 4.40878L9.91159 4.0416L9.70372 4.09533" fill="white"/>
<path d="M10.047 4.40932L9.69434 4.18098L9.81636 4.02276" fill="white"/>
<path d="M9.539 4.40537L9.89025 4.18556L9.75982 4.02252" fill="white"/>
<path d="M9.5401 4.4064L9.66564 4.04029L9.87972 4.10055" fill="white"/>
<path d="M9.79159 2.17651L9.65479 2.54131L9.86359 2.60531" fill="white"/>
<path d="M9.79142 2.17651L9.92822 2.54131L9.71942 2.60531" fill="white"/>
<path d="M10.2002 2.4465L9.76872 2.43283L9.77117 2.63519" fill="white"/>
<path d="M10.1987 2.44413L9.85905 2.67111L9.72132 2.50616" fill="white"/>
<path d="M9.3843 2.44437L9.72395 2.67135L9.86169 2.5064" fill="white"/>
<path d="M9.38279 2.4465L9.81429 2.43283L9.81184 2.63519" fill="white"/>
<path d="M10.0482 2.87265L9.91159 2.50547L9.70372 2.5592" fill="white"/>
<path d="M10.047 2.87319L9.69434 2.64485L9.81636 2.48663" fill="white"/>
<path d="M9.539 2.86924L9.89025 2.64943L9.75982 2.48638" fill="white"/>
<path d="M9.5401 2.87027L9.66564 2.50416L9.87972 2.56441" fill="white"/>
<path d="M9.79159 0.640625L9.65479 1.00543L9.86359 1.06943" fill="white"/>
<path d="M9.79142 0.640625L9.92822 1.00543L9.71942 1.06943" fill="white"/>
<path d="M10.2002 0.910611L9.76872 0.896937L9.77117 1.09931" fill="white"/>
<path d="M10.1987 0.908237L9.85905 1.13522L9.72132 0.970271" fill="white"/>
<path d="M9.3843 0.908481L9.72395 1.13546L9.86169 0.970515" fill="white"/>
<path d="M9.38279 0.910611L9.81429 0.896937L9.81184 1.09931" fill="white"/>
<path d="M10.0482 1.33676L9.91159 0.969582L9.70372 1.02331" fill="white"/>
<path d="M10.047 1.3373L9.69434 1.10896L9.81636 0.950739" fill="white"/>
<path d="M9.539 1.33335L9.89025 1.11354L9.75982 0.950495" fill="white"/>
<path d="M9.5401 1.33438L9.66564 0.968273L9.87972 1.02852" fill="white"/>
<path d="M11.5196 3.71265L11.3828 4.07745L11.5916 4.14145" fill="white"/>
<path d="M11.5195 3.71265L11.6562 4.07745L11.4474 4.14145" fill="white"/>
<path d="M11.9282 3.98263L11.4968 3.96896L11.4992 4.17133" fill="white"/>
<path d="M11.9267 3.98026L11.5871 4.20724L11.4493 4.04229" fill="white"/>
<path d="M11.1123 3.9805L11.452 4.20748L11.5897 4.04254" fill="white"/>
<path d="M11.1108 3.98263L11.5423 3.96896L11.5399 4.17133" fill="white"/>
<path d="M11.7762 4.40878L11.6396 4.0416L11.4317 4.09533" fill="white"/>
<path d="M11.7751 4.40932L11.4224 4.18098L11.5444 4.02276" fill="white"/>
<path d="M11.267 4.40537L11.6183 4.18556L11.4878 4.02252" fill="white"/>
<path d="M11.2681 4.4064L11.3937 4.04029L11.6077 4.10055" fill="white"/>
<path d="M11.5196 2.17651L11.3828 2.54131L11.5916 2.60531" fill="white"/>
<path d="M11.5195 2.17651L11.6562 2.54131L11.4474 2.60531" fill="white"/>
<path d="M11.9282 2.4465L11.4968 2.43283L11.4992 2.63519" fill="white"/>
<path d="M11.9267 2.44413L11.5871 2.67111L11.4493 2.50616" fill="white"/>
<path d="M11.1123 2.44437L11.452 2.67135L11.5897 2.5064" fill="white"/>
<path d="M11.1108 2.4465L11.5423 2.43283L11.5399 2.63519" fill="white"/>
<path d="M11.7762 2.87265L11.6396 2.50547L11.4317 2.5592" fill="white"/>
<path d="M11.7751 2.87319L11.4224 2.64485L11.5444 2.48663" fill="white"/>
<path d="M11.267 2.86924L11.6183 2.64943L11.4878 2.48638" fill="white"/>
<path d="M11.2681 2.87027L11.3937 2.50416L11.6077 2.56441" fill="white"/>
<path d="M11.5196 0.640625L11.3828 1.00543L11.5916 1.06943" fill="white"/>
<path d="M11.5195 0.640625L11.6562 1.00543L11.4474 1.06943" fill="white"/>
<path d="M11.9282 0.910611L11.4968 0.896937L11.4992 1.09931" fill="white"/>
<path d="M11.9267 0.908237L11.5871 1.13522L11.4493 0.970271" fill="white"/>
<path d="M11.1123 0.908481L11.452 1.13546L11.5897 0.970515" fill="white"/>
<path d="M11.1108 0.910611L11.5423 0.896937L11.5399 1.09931" fill="white"/>
<path d="M11.7762 1.33676L11.6396 0.969582L11.4317 1.02331" fill="white"/>
<path d="M11.7751 1.3373L11.4224 1.10896L11.5444 0.950739" fill="white"/>
<path d="M11.267 1.33335L11.6183 1.11354L11.4878 0.950495" fill="white"/>
<path d="M11.2681 1.33438L11.3937 0.968273L11.6077 1.02852" fill="white"/>
<path d="M13.2476 3.71265L13.1108 4.07745L13.3196 4.14145" fill="white"/>
<path d="M13.2475 3.71265L13.3843 4.07745L13.1755 4.14145" fill="white"/>
<path d="M13.6563 3.98263L13.2248 3.96896L13.2272 4.17133" fill="white"/>
<path d="M13.6548 3.98026L13.3151 4.20724L13.1774 4.04229" fill="white"/>
<path d="M12.8404 3.9805L13.18 4.20748L13.3177 4.04254" fill="white"/>
<path d="M12.8388 3.98263L13.2703 3.96896L13.2679 4.17133" fill="white"/>
<path d="M13.5042 4.40878L13.3676 4.0416L13.1598 4.09533" fill="white"/>
<path d="M13.5031 4.40932L13.1504 4.18098L13.2724 4.02276" fill="white"/>
<path d="M12.9951 4.40537L13.3463 4.18556L13.2159 4.02252" fill="white"/>
<path d="M12.9962 4.4064L13.1217 4.04029L13.3358 4.10055" fill="white"/>
<path d="M13.2476 2.17651L13.1108 2.54131L13.3196 2.60531" fill="white"/>
<path d="M13.2475 2.17651L13.3843 2.54131L13.1755 2.60531" fill="white"/>
<path d="M13.6563 2.4465L13.2248 2.43283L13.2272 2.63519" fill="white"/>
<path d="M13.6548 2.44413L13.3151 2.67111L13.1774 2.50616" fill="white"/>
<path d="M12.8404 2.44437L13.18 2.67135L13.3177 2.5064" fill="white"/>
<path d="M12.8388 2.4465L13.2703 2.43283L13.2679 2.63519" fill="white"/>
<path d="M13.5042 2.87265L13.3676 2.50547L13.1598 2.5592" fill="white"/>
<path d="M13.5031 2.87319L13.1504 2.64485L13.2724 2.48663" fill="white"/>
<path d="M12.9951 2.86924L13.3463 2.64943L13.2159 2.48638" fill="white"/>
<path d="M12.9962 2.87027L13.1217 2.50416L13.3358 2.56441" fill="white"/>
<path d="M13.2476 0.640625L13.1108 1.00543L13.3196 1.06943" fill="white"/>
<path d="M13.2475 0.640625L13.3843 1.00543L13.1755 1.06943" fill="white"/>
<path d="M13.6563 0.910611L13.2248 0.896937L13.2272 1.09931" fill="white"/>
<path d="M13.6548 0.908237L13.3151 1.13522L13.1774 0.970271" fill="white"/>
<path d="M12.8404 0.908481L13.18 1.13546L13.3177 0.970515" fill="white"/>
<path d="M12.8388 0.910611L13.2703 0.896937L13.2679 1.09931" fill="white"/>
<path d="M13.5042 1.33676L13.3676 0.969582L13.1598 1.02331" fill="white"/>
<path d="M13.5031 1.3373L13.1504 1.10896L13.2724 0.950739" fill="white"/>
<path d="M12.9951 1.33335L13.3463 1.11354L13.2159 0.950495" fill="white"/>
<path d="M12.9962 1.33438L13.1217 0.968273L13.3358 1.02852" fill="white"/>
<path d="M6.33553 3.71265L6.19873 4.07745L6.40753 4.14145" fill="white"/>
<path d="M6.33537 3.71265L6.47217 4.07745L6.26337 4.14145" fill="white"/>
<path d="M6.74417 3.98263L6.31267 3.96896L6.31512 4.17133" fill="white"/>
<path d="M6.74265 3.98026L6.403 4.20724L6.26526 4.04229" fill="white"/>
<path d="M5.92825 3.9805L6.2679 4.20748L6.40564 4.04254" fill="white"/>
<path d="M5.92673 3.98263L6.35823 3.96896L6.35578 4.17133" fill="white"/>
<path d="M6.59213 4.40878L6.45553 4.0416L6.24766 4.09533" fill="white"/>
<path d="M6.59097 4.40932L6.23829 4.18098L6.3603 4.02276" fill="white"/>
<path d="M6.08295 4.40537L6.43419 4.18556L6.30376 4.02252" fill="white"/>
<path d="M6.08405 4.4064L6.20958 4.04029L6.42366 4.10055" fill="white"/>
<path d="M8.06356 3.71265L7.92676 4.07745L8.13556 4.14145" fill="white"/>
<path d="M8.0634 3.71265L8.2002 4.07745L7.9914 4.14145" fill="white"/>
<path d="M8.47219 3.98263L8.0407 3.96896L8.04314 4.17133" fill="white"/>
<path d="M8.47068 3.98026L8.13103 4.20724L7.99329 4.04229" fill="white"/>
<path d="M7.65627 3.9805L7.99593 4.20748L8.13366 4.04254" fill="white"/>
<path d="M7.65476 3.98263L8.08626 3.96896L8.08381 4.17133" fill="white"/>
<path d="M8.32015 4.40878L8.18356 4.0416L7.97569 4.09533" fill="white"/>
<path d="M8.319 4.40932L7.96632 4.18098L8.08833 4.02276" fill="white"/>
<path d="M7.81097 4.40537L8.16222 4.18556L8.03179 4.02252" fill="white"/>
<path d="M7.81207 4.4064L7.93761 4.04029L8.15169 4.10055" fill="white"/>
<path d="M8.06356 2.17651L7.92676 2.54131L8.13556 2.60531" fill="white"/>
<path d="M8.0634 2.17651L8.2002 2.54131L7.9914 2.60531" fill="white"/>
<path d="M8.47219 2.4465L8.0407 2.43283L8.04314 2.63519" fill="white"/>
<path d="M8.47068 2.44413L8.13103 2.67111L7.99329 2.50616" fill="white"/>
<path d="M7.65627 2.44437L7.99593 2.67135L8.13366 2.5064" fill="white"/>
<path d="M7.65476 2.4465L8.08626 2.43283L8.08381 2.63519" fill="white"/>
<path d="M8.32015 2.87265L8.18356 2.50547L7.97569 2.5592" fill="white"/>
<path d="M8.319 2.87319L7.96632 2.64485L8.08833 2.48663" fill="white"/>
<path d="M7.81097 2.86924L8.16222 2.64943L8.03179 2.48638" fill="white"/>
<path d="M7.81207 2.87027L7.93761 2.50416L8.15169 2.56441" fill="white"/>
</g>
<defs>
<clipPath id="clip0_332_26341">
<rect width="24" height="16" fill="white"/>
</clipPath>
</defs>
</svg>
