<svg width="20" height="20" viewBox="0 0 20 20" fill="none" xmlns="http://www.w3.org/2000/svg">
<path fill-rule="evenodd" clip-rule="evenodd" d="M9.16683 3.33325C12.3885 3.33325 15.0002 5.94492 15.0002 9.16659C15.0002 10.4769 14.5682 11.6863 13.8388 12.6601L16.4228 15.244C16.7482 15.5695 16.7482 16.0971 16.4228 16.4225C16.0973 16.748 15.5697 16.748 15.2442 16.4225L12.6603 13.8386C11.6865 14.5679 10.4771 14.9999 9.16683 14.9999C5.94517 14.9999 3.3335 12.3882 3.3335 9.16659C3.3335 5.94492 5.94517 3.33325 9.16683 3.33325ZM9.16683 13.3333C11.468 13.3333 13.3335 11.4678 13.3335 9.16659C13.3335 6.8654 11.468 4.99992 9.16683 4.99992C6.86564 4.99992 5.00016 6.8654 5.00016 9.16659C5.00016 11.4678 6.86564 13.3333 9.16683 13.3333Z" fill="#A0A3A6"/>
</svg>
