<svg width="24" height="24" viewBox="0 0 24 24" fill="none" xmlns="http://www.w3.org/2000/svg">
<path d="M13.8211 8C13.8211 10.2091 12.071 12 9.9121 12C7.75325 12 6.00315 10.2091 6.00315 8C6.00315 5.79086 7.75325 4 9.9121 4C12.071 4 13.8211 5.79086 13.8211 8Z" fill="#5D6165"/>
<path d="M15.6987 17.6667C15.1456 20 11.8663 20 9.9121 20C7.95793 20 4.67886 20 4.12552 17.6667C3.45452 14.8371 5.48664 13 9.9121 13C14.3373 13 16.3695 14.8371 15.6987 17.6667Z" fill="#5D6165"/>
<path fill-rule="evenodd" clip-rule="evenodd" d="M17.0675 16.5827C17.0855 16.8088 17.2634 16.9961 17.4856 16.9885C18.8417 16.9422 20.6551 16.7098 20.9399 15.5417C21.3712 13.7732 19.4348 12.625 16.59 12.625C16.0838 12.625 15.6063 12.6614 15.1659 12.7311C14.8246 12.7851 14.78 13.242 15.0693 13.4345C15.7977 13.9189 16.3935 14.547 16.7447 15.3256C16.9248 15.7247 17.0326 16.1461 17.0675 16.5827Z" fill="#5D6165"/>
<path d="M19.1029 9.5C19.1029 10.8807 17.9778 12 16.59 12C15.2022 12 14.0771 10.8807 14.0771 9.5C14.0771 8.11929 15.2022 7 16.59 7C17.9778 7 19.1029 8.11929 19.1029 9.5Z" fill="#5D6165"/>
</svg>
