<svg width="24" height="24" viewBox="0 0 24 24" fill="none" xmlns="http://www.w3.org/2000/svg">
<path d="M19.8524 11.0893L19.8531 11.0896C20.0571 11.1771 20.2717 11.3653 20.4375 11.6194C20.6032 11.8736 20.6901 12.1476 20.6901 12.3701V13.6901C20.6901 13.9909 20.5815 14.1281 20.4982 14.1825C20.4141 14.2373 20.2409 14.2827 19.9577 14.1608L14.948 12.0009L14.9481 12.0008L14.9358 11.9958C14.6326 11.8746 14.2732 11.8571 13.9706 12.0559C13.6645 12.2569 13.5401 12.5975 13.5401 12.9301V15.8401C13.5401 16.0375 13.5928 16.243 13.6636 16.4158C13.7327 16.5846 13.8399 16.7733 13.9906 16.9177L16.3057 19.2429L16.3065 19.2436C16.3427 19.2798 16.3949 19.366 16.4239 19.4928C16.4527 19.6188 16.4448 19.7247 16.4257 19.7819L16.4254 19.783L15.9765 21.1395C15.9764 21.14 15.9762 21.1405 15.976 21.141C15.879 21.4244 15.5689 21.5638 15.2973 21.4615L12.9738 19.509C12.427 19.0404 11.5632 19.0404 11.0163 19.509L8.68969 21.4642C8.4229 21.5701 8.12178 21.4278 8.0383 21.1542L8.03843 21.1541L8.03475 21.143L7.58578 19.7861C7.58565 19.7858 7.58553 19.7854 7.5854 19.785C7.56431 19.7187 7.5581 19.6112 7.58606 19.4898C7.61449 19.3663 7.66593 19.2813 7.70361 19.2436L7.70437 19.2429L10.0236 16.9136C10.0238 16.9134 10.024 16.9133 10.0241 16.9131C10.1677 16.7693 10.2718 16.5808 10.3393 16.412C10.4074 16.2417 10.4601 16.0371 10.4601 15.8401V14.0401V12.9301C10.4601 12.5932 10.3302 12.2531 10.0268 12.0528C9.72303 11.8523 9.35961 11.8671 9.05115 12.0013C9.05085 12.0015 9.05056 12.0016 9.05027 12.0017L4.0424 14.1608C3.75918 14.2827 3.58601 14.2373 3.50194 14.1825C3.41858 14.1281 3.31006 13.9909 3.31006 13.6901V12.3701C3.31006 12.1475 3.39693 11.8737 3.56212 11.6215C3.72751 11.3689 3.94041 11.1849 4.1408 11.1022L4.14082 11.1023L4.1475 11.0994L9.8475 8.64942L9.86076 8.64372L9.87366 8.63727C10.0502 8.54903 10.1875 8.40691 10.2798 8.26418C10.3717 8.12229 10.4501 7.93154 10.4501 7.72006V4.66006C10.4501 4.2947 10.5888 3.85687 10.8375 3.45153C11.0852 3.04773 11.4123 2.72476 11.7365 2.55586C11.8946 2.47797 12.0866 2.47813 12.2446 2.55633C12.5748 2.72598 12.9042 3.04763 13.1525 3.4484C13.4016 3.85041 13.5401 4.28515 13.5401 4.65006V7.71006C13.5401 7.92154 13.6185 8.11229 13.7103 8.25419C13.8026 8.39692 13.94 8.53903 14.1165 8.62727L14.1306 8.63436L14.1452 8.64054L15.1824 9.07933L15.1852 9.08054L19.8524 11.0893Z" fill="#5D6165" stroke="#5D6165"/>
</svg>
