<svg width="24" height="24" viewBox="0 0 24 24" fill="none" xmlns="http://www.w3.org/2000/svg">
<path d="M11.2927 5.45964C11.6833 5.06912 12.3164 5.06912 12.7069 5.45964L18.5403 11.293C18.7278 11.4805 18.8332 11.7349 18.8332 12.0001C18.8332 12.2653 18.7278 12.5197 18.5403 12.7072L12.7069 18.5405C12.3164 18.931 11.6833 18.931 11.2927 18.5405C10.9022 18.15 10.9022 17.5168 11.2927 17.1263L15.419 13.0001H6.1665C5.61422 13.0001 5.1665 12.5524 5.1665 12.0001C5.1665 11.4478 5.61422 11.0001 6.1665 11.0001H15.419L11.2927 6.87385C10.9022 6.48333 10.9022 5.85017 11.2927 5.45964Z" fill="#A0A3A6"/>
</svg>
