<svg width="43" height="36" viewBox="0 0 43 36" fill="none" xmlns="http://www.w3.org/2000/svg">
<path d="M20.56 3.90998C21.15 4.49998 21.15 5.44998 20.56 6.02998L16.67 9.91998L18.79 19.11L17.38 20.53L13.5 13.1L9.6 17L9.96 19.47L8.89 20.53L7.13 17.35L3.94 15.58L5 14.5L7.5 14.87L11.37 11L3.94 7.08998L5.36 5.67998L14.55 7.79998L18.44 3.90998C19 3.32998 20 3.32998 20.56 3.90998Z" fill="#2563EB"/>
<path d="M22.44 32.09C21.85 31.5 21.85 30.55 22.44 29.97L26.33 26.08L24.21 16.89L25.62 15.47L29.5 22.9L33.4 19L33.04 16.53L34.11 15.47L35.87 18.65L39.06 20.42L38 21.5L35.5 21.13L31.63 25L39.06 28.91L37.64 30.32L28.45 28.2L24.56 32.09C24 32.67 23 32.67 22.44 32.09Z" fill="#172B4D"/>
</svg>
