<svg width="40" height="40" viewBox="0 0 40 40" fill="none" xmlns="http://www.w3.org/2000/svg">
<rect x="0.5" y="0.5" width="39" height="39" rx="19.5" fill="#2563EB"/>
<rect x="0.5" y="0.5" width="39" height="39" rx="19.5" stroke="#3B82F6"/>
<path d="M20.625 15.625H16.25C16.0842 15.625 15.9253 15.5592 15.8081 15.4419C15.6908 15.3247 15.625 15.1658 15.625 15C15.625 14.8342 15.6908 14.6753 15.8081 14.5581C15.9253 14.4408 16.0842 14.375 16.25 14.375H20.625C20.7908 14.375 20.9497 14.4408 21.0669 14.5581C21.1842 14.6753 21.25 14.8342 21.25 15C21.25 15.1658 21.1842 15.3247 21.0669 15.4419C20.9497 15.5592 20.7908 15.625 20.625 15.625ZM22.5 18.75H16.25C16.0842 18.75 15.9253 18.6842 15.8081 18.5669C15.6908 18.4497 15.625 18.2908 15.625 18.125C15.625 17.9592 15.6908 17.8003 15.8081 17.6831C15.9253 17.5658 16.0842 17.5 16.25 17.5H22.5C22.6658 17.5 22.8247 17.5658 22.9419 17.6831C23.0592 17.8003 23.125 17.9592 23.125 18.125C23.125 18.2908 23.0592 18.4497 22.9419 18.5669C22.8247 18.6842 22.6658 18.75 22.5 18.75ZM19.9125 21.25H16.25C16.0842 21.25 15.9253 21.1842 15.8081 21.0669C15.6908 20.9497 15.625 20.7908 15.625 20.625C15.625 20.4592 15.6908 20.3003 15.8081 20.1831C15.9253 20.0658 16.0842 20 16.25 20H19.9125C20.0783 20 20.2372 20.0658 20.3544 20.1831C20.4717 20.3003 20.5375 20.4592 20.5375 20.625C20.5375 20.7908 20.4717 20.9497 20.3544 21.0669C20.2372 21.1842 20.0783 21.25 19.9125 21.25ZM18.4125 23.75H16.25C16.0842 23.75 15.9253 23.6842 15.8081 23.5669C15.6908 23.4497 15.625 23.2908 15.625 23.125C15.625 22.9592 15.6908 22.8003 15.8081 22.6831C15.9253 22.5658 16.0842 22.5 16.25 22.5H18.4125C18.5783 22.5 18.7372 22.5658 18.8544 22.6831C18.9717 22.8003 19.0375 22.9592 19.0375 23.125C19.0375 23.2908 18.9717 23.4497 18.8544 23.5669C18.7372 23.6842 18.5783 23.75 18.4125 23.75Z" fill="white"/>
<path d="M18.4125 27.5H15.625C13.9019 27.5 12.5 26.0981 12.5 24.375V13.75C12.5 12.0269 13.9019 10.625 15.625 10.625H23.125C24.8481 10.625 26.25 12.0269 26.25 13.75V18.875C26.25 19.0408 26.1842 19.1997 26.0669 19.3169C25.9497 19.4342 25.7908 19.5 25.625 19.5C25.4592 19.5 25.3003 19.4342 25.1831 19.3169C25.0658 19.1997 25 19.0408 25 18.875V13.75C25 12.7162 24.1587 11.875 23.125 11.875H15.625C14.5912 11.875 13.75 12.7162 13.75 13.75V24.375C13.75 25.4087 14.5912 26.25 15.625 26.25H18.4125C18.5783 26.25 18.7372 26.3158 18.8544 26.4331C18.9717 26.5503 19.0375 26.7092 19.0375 26.875C19.0375 27.0408 18.9717 27.1997 18.8544 27.3169C18.7372 27.4342 18.5783 27.5 18.4125 27.5Z" fill="white"/>
<path d="M24.375 29.375C21.9631 29.375 20 27.4125 20 25C20 22.5875 21.9631 20.625 24.375 20.625C26.7869 20.625 28.75 22.5875 28.75 25C28.75 27.4125 26.7869 29.375 24.375 29.375ZM24.375 21.875C22.6519 21.875 21.25 23.2769 21.25 25C21.25 26.7231 22.6519 28.125 24.375 28.125C26.0981 28.125 27.5 26.7231 27.5 25C27.5 23.2769 26.0981 21.875 24.375 21.875Z" fill="white"/>
<path d="M23.958 26.5831C23.8759 26.5832 23.7947 26.5671 23.7188 26.5357C23.643 26.5042 23.5741 26.4581 23.5162 26.4L22.683 25.5669C22.625 25.5089 22.579 25.44 22.5476 25.3642C22.5162 25.2883 22.5 25.2071 22.5 25.125C22.5 25.043 22.5162 24.9617 22.5476 24.8859C22.579 24.8101 22.625 24.7412 22.683 24.6831C22.7411 24.6251 22.8099 24.5791 22.8858 24.5477C22.9616 24.5163 23.0428 24.5001 23.1249 24.5001C23.207 24.5001 23.2882 24.5163 23.364 24.5477C23.4399 24.5791 23.5088 24.6251 23.5668 24.6831L23.958 25.0744L25.183 23.85C25.2411 23.792 25.3099 23.746 25.3858 23.7146C25.4616 23.6832 25.5428 23.667 25.6249 23.667C25.707 23.667 25.7882 23.6832 25.864 23.7146C25.9399 23.746 26.0088 23.792 26.0668 23.85C26.1248 23.9081 26.1708 23.9769 26.2022 24.0528C26.2336 24.1286 26.2498 24.2098 26.2498 24.2919C26.2498 24.374 26.2336 24.4552 26.2022 24.531C26.1708 24.6069 26.1248 24.6757 26.0668 24.7338L24.3999 26.4006C24.3419 26.4588 24.2731 26.5049 24.1972 26.5363C24.1214 26.5677 24.0401 26.5832 23.958 26.5831Z" fill="white"/>
</svg>
